M48
;Layer_Color=9474304
;FILE_FORMAT=4:4
METRIC,LZ
;TYPE=PLATED
T1F00S00C0.7112
T2F00S00C0.8000
T3F00S00C1.0200
T4F00S00C1.0800
T5F00S00C1.1000
T6F00S00C1.4000
T7F00S00C3.0000
%
T01
X00691896Y0003738
X0042672Y0012319
X0011811Y0021209
X00694944Y0022463
X0074422Y0022098
X00786384Y00234264
X0082677Y0022733
X00806704Y00272796
X0077597Y0029591
X0075692Y0030988
X00895604Y00263652
X0090297Y0024003
X00870966Y00385318
X0059182Y003556
X00691896Y00130048
X0065786Y00068326
X01009766Y00093864
X0099695Y0011557
X0098806Y0014859
X0097155Y0014351
X0096647Y0018923
X00990328Y00185928
X00979401Y0020828
X00972704Y00227446
X00953759Y00227352
X00953654Y00208396
X00993891Y00222769
X01012952Y0025019
X0103124Y0024765
X01017154Y00278246
X0099568Y0027178
X0096012Y0028448
X0093472
X00946963Y0033528
X01116588Y0032258
X01129284Y00304904
X0114427Y0021082
X01104806Y00209296
X0108585Y0019812
X0109855Y0018034
X0109982Y0016002
X0111887Y0014351
X01086612Y00129688
X0102616Y001524
X0103632Y0017018
X0106045Y002159
X01067673Y00228203
X0115189Y0016256
X01183502Y0013806
X0118872Y0019558
X0124333Y0024765
X0127127Y0022987
X0124841Y0029972
Y0041275
X01258561Y00429269
X01276096Y00400558
X01145286Y0040259
X0115697Y00429768
X01316736Y0043688
X01332992Y0041457
X01317498Y00384048
X01370838Y00434848
X0141732Y0041148
X0146812Y0040513
X0149987Y00442976
X0150622Y0036703
X01635252Y0045339
X0153797Y0045593
X01316736Y00477266
X0125095Y0048768
X0116332Y0050673
X0111252
X0110109Y00521462
X0112522Y0052578
X0111252Y0046228
X0103632Y0055118
X01036053Y00565401
X0019812Y0047498
T02
X0095282Y0004318
X0097282
X0050292Y0015908
Y0025908
T03
X0092202Y0010668
X0094742
X0097282
X0098044Y0030988
Y0033528
Y0036068
X0102362
Y0033528
Y0030988
X0104902
Y0033528
Y0036068
X0116332Y0023368
Y0020828
Y0018288
T04
X0060392Y0043688
X0062992
X0065492
T05
X0078232Y0033528
X0080772
X0083312
X0085852
X0088392
Y0036068
X0085852
X0083312
X0080772
X0078232
X0106172Y0018288
Y0015748
Y0013208
Y0010668
Y0008128
X0121412Y0015748
Y0018288
Y0020828
Y0023368
T06
X0003235Y0008442
X0008275
Y0015942
X0003235
X0013315
Y0008442
X0028575
Y0015942
T07
X017272Y000254
X000254
X017272Y006604
X000254
M30
