G04*
G04 #@! TF.GenerationSoftware,Altium Limited,Altium Designer,23.2.1 (34)*
G04*
G04 Layer_Color=8421504*
%FSLAX44Y44*%
%MOMM*%
G71*
G04*
G04 #@! TF.SameCoordinates,88D0D14B-AD0B-4371-A2B6-2D90086A33F9*
G04*
G04*
G04 #@! TF.FilePolarity,Positive*
G04*
G01*
G75*
%ADD18O,1.7000X0.3500*%
%ADD19R,1.1000X2.9000*%
%ADD20R,1.4500X1.0500*%
%ADD21R,1.0500X1.4500*%
%ADD22R,2.9000X1.1000*%
%ADD23R,2.8000X1.1000*%
%ADD24R,1.5000X1.7000*%
%ADD25R,1.6552X0.2525*%
G04:AMPARAMS|DCode=26|XSize=1.6552mm|YSize=0.2525mm|CornerRadius=0.1262mm|HoleSize=0mm|Usage=FLASHONLY|Rotation=0.000|XOffset=0mm|YOffset=0mm|HoleType=Round|Shape=RoundedRectangle|*
%AMROUNDEDRECTD26*
21,1,1.6552,0.0000,0,0,0.0*
21,1,1.4028,0.2525,0,0,0.0*
1,1,0.2525,0.7014,0.0000*
1,1,0.2525,-0.7014,0.0000*
1,1,0.2525,-0.7014,0.0000*
1,1,0.2525,0.7014,0.0000*
%
%ADD26ROUNDEDRECTD26*%
G04:AMPARAMS|DCode=27|XSize=0.2525mm|YSize=1.6552mm|CornerRadius=0.1262mm|HoleSize=0mm|Usage=FLASHONLY|Rotation=0.000|XOffset=0mm|YOffset=0mm|HoleType=Round|Shape=RoundedRectangle|*
%AMROUNDEDRECTD27*
21,1,0.2525,1.4028,0,0,0.0*
21,1,0.0000,1.6552,0,0,0.0*
1,1,0.2525,0.0000,-0.7014*
1,1,0.2525,0.0000,-0.7014*
1,1,0.2525,0.0000,0.7014*
1,1,0.2525,0.0000,0.7014*
%
%ADD27ROUNDEDRECTD27*%
%ADD28R,3.5000X2.0000*%
%ADD29R,6.0000X2.0000*%
%ADD30R,1.1046X1.3562*%
%ADD31R,1.3562X1.1046*%
%ADD32R,6.9000X5.6500*%
%ADD33R,2.8500X1.0000*%
%ADD34R,1.2200X0.9100*%
%ADD35R,0.9000X0.8000*%
%ADD36R,4.2700X1.7800*%
%ADD37R,1.4562X1.3046*%
D18*
X1421720Y472030D02*
D03*
Y465530D02*
D03*
Y459030D02*
D03*
Y452530D02*
D03*
X1463720Y472030D02*
D03*
Y465530D02*
D03*
Y459030D02*
D03*
Y452530D02*
D03*
D19*
X452120Y419580D02*
D03*
Y479580D02*
D03*
D20*
X655320Y55880D02*
D03*
Y37380D02*
D03*
Y125180D02*
D03*
Y106680D02*
D03*
X1093470Y560430D02*
D03*
Y541930D02*
D03*
X1061720D02*
D03*
Y560430D02*
D03*
X1156970Y382630D02*
D03*
Y364130D02*
D03*
X858520Y192130D02*
D03*
Y173630D02*
D03*
Y128630D02*
D03*
Y110130D02*
D03*
D21*
X1229720Y487680D02*
D03*
X1211220D02*
D03*
X1518920Y436880D02*
D03*
X1537420D02*
D03*
X1486620Y335280D02*
D03*
X1468120D02*
D03*
Y386080D02*
D03*
X1486620D02*
D03*
X1537420Y335280D02*
D03*
X1518920D02*
D03*
X1271820Y436880D02*
D03*
X1290320D02*
D03*
X1229720D02*
D03*
X1211220D02*
D03*
X1290320Y487680D02*
D03*
X1271820D02*
D03*
X1334770Y436880D02*
D03*
X1353270D02*
D03*
X1229720Y386080D02*
D03*
X1211220D02*
D03*
X1271820D02*
D03*
X1290320D02*
D03*
X1137920Y119380D02*
D03*
X1119420D02*
D03*
X1115970Y68580D02*
D03*
X1134470D02*
D03*
X766170Y462280D02*
D03*
X747670D02*
D03*
X814620D02*
D03*
X833120D02*
D03*
D22*
X1299210Y298450D02*
D03*
X1359210D02*
D03*
D23*
X723710Y182880D02*
D03*
X756920D02*
D03*
X655320Y345440D02*
D03*
X688530D02*
D03*
D24*
X248920Y525780D02*
D03*
Y576580D02*
D03*
X336550D02*
D03*
Y525780D02*
D03*
Y259080D02*
D03*
Y309880D02*
D03*
X248920D02*
D03*
Y259080D02*
D03*
D25*
X931565Y235780D02*
D03*
D26*
Y230780D02*
D03*
Y225780D02*
D03*
Y220780D02*
D03*
Y215780D02*
D03*
Y210780D02*
D03*
Y205780D02*
D03*
Y200780D02*
D03*
Y195780D02*
D03*
Y190780D02*
D03*
Y185780D02*
D03*
Y180780D02*
D03*
X1014075D02*
D03*
Y185780D02*
D03*
Y190780D02*
D03*
Y195780D02*
D03*
Y200780D02*
D03*
Y205780D02*
D03*
Y210780D02*
D03*
Y215780D02*
D03*
Y220780D02*
D03*
Y225780D02*
D03*
Y230780D02*
D03*
Y235780D02*
D03*
D27*
X945320Y167025D02*
D03*
X950320D02*
D03*
X955320D02*
D03*
X960320D02*
D03*
X965320D02*
D03*
X970320D02*
D03*
X975320D02*
D03*
X980320D02*
D03*
X985320D02*
D03*
X990320D02*
D03*
X995320D02*
D03*
X1000320D02*
D03*
Y249535D02*
D03*
X995320D02*
D03*
X990320D02*
D03*
X985320D02*
D03*
X980320D02*
D03*
X975320D02*
D03*
X970320D02*
D03*
X965320D02*
D03*
X960320D02*
D03*
X955320D02*
D03*
X950320D02*
D03*
X945320D02*
D03*
D28*
X142770Y531180D02*
D03*
Y571180D02*
D03*
Y289880D02*
D03*
Y329880D02*
D03*
X1604220Y422280D02*
D03*
Y462280D02*
D03*
X1599670Y543880D02*
D03*
Y583880D02*
D03*
D29*
X50270Y531180D02*
D03*
Y571180D02*
D03*
Y289880D02*
D03*
Y329880D02*
D03*
X1696720Y422280D02*
D03*
Y462280D02*
D03*
X1692170Y543880D02*
D03*
Y583880D02*
D03*
D30*
X1418320Y386080D02*
D03*
X1432336D02*
D03*
X1354478D02*
D03*
X1340462D02*
D03*
X1334112Y487680D02*
D03*
X1348128D02*
D03*
X1518920Y386080D02*
D03*
X1532936D02*
D03*
X858520Y259080D02*
D03*
X872536D02*
D03*
D31*
X1156970Y296522D02*
D03*
Y310538D02*
D03*
X1099820Y298180D02*
D03*
Y312195D02*
D03*
D32*
X1239520Y563880D02*
D03*
D33*
X1307520Y586680D02*
D03*
Y541080D02*
D03*
D34*
X350520Y90330D02*
D03*
Y123030D02*
D03*
X655320Y224630D02*
D03*
Y191930D02*
D03*
X1099820Y389730D02*
D03*
Y357030D02*
D03*
D35*
X1157920Y547980D02*
D03*
X1137920Y538480D02*
D03*
Y557480D02*
D03*
X1157920Y478180D02*
D03*
X1137920Y468680D02*
D03*
Y487680D02*
D03*
X1107120Y478180D02*
D03*
X1087120Y468680D02*
D03*
Y487680D02*
D03*
X1115220Y182880D02*
D03*
X1135220Y192380D02*
D03*
Y173380D02*
D03*
D36*
X1502120Y576580D02*
D03*
Y551180D02*
D03*
X1396020D02*
D03*
Y576580D02*
D03*
D37*
X807720Y259080D02*
D03*
Y243064D02*
D03*
X706120D02*
D03*
Y259080D02*
D03*
X756920Y243064D02*
D03*
Y259080D02*
D03*
M02*
