G04*
G04 #@! TF.GenerationSoftware,Altium Limited,Altium Designer,23.2.1 (34)*
G04*
G04 Layer_Physical_Order=2*
G04 Layer_Color=16711680*
%FSLAX44Y44*%
%MOMM*%
G71*
G04*
G04 #@! TF.SameCoordinates,88D0D14B-AD0B-4371-A2B6-2D90086A33F9*
G04*
G04*
G04 #@! TF.FilePolarity,Positive*
G04*
G01*
G75*
%ADD15C,0.2540*%
%ADD59R,1.3000X1.3000*%
%ADD60C,1.3000*%
%ADD66C,0.2540*%
%ADD67C,1.7780*%
%ADD68C,0.5080*%
%ADD69C,2.5400*%
%ADD70C,1.6000*%
%ADD71R,1.6000X1.6000*%
%ADD72C,2.1000*%
%ADD73C,1.5500*%
%ADD74R,1.5500X1.5500*%
%ADD75R,1.5500X1.5500*%
%ADD76C,1.5190*%
%ADD77R,1.6500X1.6500*%
%ADD78C,1.6500*%
%ADD79C,4.0000*%
%ADD80C,1.2700*%
D15*
X1076094Y179117D02*
G03*
X1076094Y186643I-14374J3763D01*
G01*
X1072029Y179682D02*
G03*
X1072018Y186115I-10309J3198D01*
G01*
X1171124Y226586D02*
G03*
X1171123Y226585I1796J-1796D01*
G01*
X1155553Y226549D02*
G03*
X1171088Y226550I7767J7131D01*
G01*
X1222262Y226586D02*
G03*
X1222261Y226585I1796J-1796D01*
G01*
X1205979Y226585D02*
G03*
X1205978Y226586I-1797J-1795D01*
G01*
X1155518Y226584D02*
G03*
X1155516Y226586I-1798J-1794D01*
G01*
X1206031Y226533D02*
G03*
X1222209Y226534I8089J7147D01*
G01*
X1072306Y159588D02*
G03*
X1051218Y159974I-10586J-2108D01*
G01*
X1072642Y157755D02*
G03*
X1072585Y158289I-2540J0D01*
G01*
X1223006Y227330D02*
X1243326Y247650D01*
X1243330D01*
X1222262Y226586D02*
X1223006Y227330D01*
X1223006D01*
X947420Y297180D02*
Y334823D01*
X946963Y335280D02*
X947420Y334823D01*
X960120Y284480D02*
X962064Y286424D01*
Y291504D02*
X980440Y309880D01*
X962064Y286424D02*
Y291504D01*
X996064Y300973D02*
Y319656D01*
X980440Y335280D02*
X996064Y319656D01*
X997624Y281344D02*
X999490Y283210D01*
Y298651D01*
X995680Y271780D02*
X997624Y273724D01*
Y281344D01*
X979401Y208280D02*
X1017124D01*
X969836Y198564D02*
X990624D01*
X961473Y206927D02*
X969836Y198564D01*
X953654Y208396D02*
X955123Y206927D01*
X961473D01*
X994813Y222769D02*
X1004256Y232213D01*
X993891Y222769D02*
X994813D01*
X1004256Y232213D02*
X1007906D01*
X1017124Y208280D02*
X1018648Y206756D01*
X1007906Y232213D02*
X1022096Y246402D01*
X982304Y179583D02*
X988648Y185928D01*
X975471Y175183D02*
X979872Y179583D01*
X982304D01*
X988648Y185928D02*
X990328D01*
X1008634Y105664D02*
Y180553D01*
X990624Y198564D02*
X1008634Y180553D01*
X972704Y227446D02*
X972820Y227561D01*
Y275844D01*
X953538Y189230D02*
X966470D01*
X939800Y202968D02*
X953538Y189230D01*
X975471Y172323D02*
Y175183D01*
X939800Y202968D02*
Y203200D01*
X902080Y272856D02*
X908255D01*
X858520Y316416D02*
X902080Y272856D01*
X908255D02*
X953759Y227352D01*
X858520Y316416D02*
Y335280D01*
X1010920Y286380D02*
X1017154Y280146D01*
X1010920Y286380D02*
Y289016D01*
X1017154Y278246D02*
Y280146D01*
X1010920Y289016D02*
X1012952Y291048D01*
Y317500D01*
X1035050Y168910D02*
X1036320Y170180D01*
X1026160Y168910D02*
X1035050D01*
X1017016Y159766D02*
X1026160Y168910D01*
X902970Y240030D02*
X939800Y203200D01*
X1014730Y251968D02*
Y262890D01*
X1049020Y297180D02*
Y309880D01*
X1014730Y262890D02*
X1049020Y297180D01*
X1000128Y299289D02*
Y311788D01*
X999490Y298651D02*
X1000128Y299289D01*
X972820Y275844D02*
X995426Y298450D01*
X1000128Y311788D02*
X1023620Y335280D01*
X995426Y300335D02*
X996064Y300973D01*
X995426Y298450D02*
Y300335D01*
X1020064Y324612D02*
X1032256D01*
X1012952Y250190D02*
X1014730Y251968D01*
X1012952Y317500D02*
X1020064Y324612D01*
X1112520Y198120D02*
X1150620Y160020D01*
X1085850Y198120D02*
X1112520D01*
X1117600Y218440D02*
X1118344Y217696D01*
X1076094Y216086D02*
X1077581Y217574D01*
X1076094Y186643D02*
Y216086D01*
Y175785D02*
Y179117D01*
X1098212Y221637D02*
X1117600Y218440D01*
X1066002Y205268D02*
X1072018Y186115D01*
X1096528Y217574D02*
X1097272Y216830D01*
X1065383Y217844D02*
X1071245Y219059D01*
X1062394Y217844D02*
X1065383D01*
X1075898Y221637D02*
X1098212D01*
X1076837Y175042D02*
X1090676Y161203D01*
X1097272Y216830D02*
X1104806Y209296D01*
X1118344Y217696D02*
X1153160Y182880D01*
X1072029Y174102D02*
X1086612Y159520D01*
X1072029Y174102D02*
Y179682D01*
X1077581Y217574D02*
X1096528D01*
X1064514Y206756D02*
X1066002Y205268D01*
X1071245Y219059D02*
X1075898Y221637D01*
X1018648Y206756D02*
X1064514D01*
X1076094Y175785D02*
X1076837Y175042D01*
X1060450Y215900D02*
X1062394Y217844D01*
X1027452Y256794D02*
X1140206D01*
X1022096Y246402D02*
Y251437D01*
X1027452Y256794D01*
X1031240Y247650D02*
X1110613D01*
X1140206Y256794D02*
X1163320Y233680D01*
X1110613Y247650D02*
X1115693Y242570D01*
X1153160Y182880D02*
X1163320D01*
X1222209Y226534D02*
X1222261Y226585D01*
X1205979Y226585D02*
X1206031Y226533D01*
X1171868Y227330D02*
X1205234D01*
X1155518Y226584D02*
X1155553Y226549D01*
X1154772Y227330D02*
X1155516Y226586D01*
X1205234Y227330D02*
X1205978Y226586D01*
X1130933Y227330D02*
X1154772D01*
X1130189Y228074D02*
X1130933Y227330D01*
X1171088Y226550D02*
X1171123Y226585D01*
X1171124Y226586D02*
X1171868Y227330D01*
X1115693Y242570D02*
X1130189Y228074D01*
X1123744Y228203D02*
X1141127Y210820D01*
X1067673Y228203D02*
X1123744D01*
X1141127Y210820D02*
X1144270D01*
X1017016Y148612D02*
Y159766D01*
X1072306Y159588D02*
X1072585Y158289D01*
X1050738Y159494D02*
X1051218Y159974D01*
X1026904Y158006D02*
X1027648Y158750D01*
X1026160Y157262D02*
X1026904Y158006D01*
X1026160Y152400D02*
Y157262D01*
X1072642Y117602D02*
Y157755D01*
X1027648Y158750D02*
X1049994D01*
X1050738Y159494D01*
X1033549Y132080D02*
X1061720D01*
X1017016Y148612D02*
X1033549Y132080D01*
X998255Y95285D02*
X1008634Y105664D01*
X988060Y148590D02*
X996950Y139700D01*
Y115570D02*
Y139700D01*
X991966Y88996D02*
X998255Y95285D01*
X967887D02*
X974177Y88996D01*
X962930Y100243D02*
X967887Y95285D01*
X962930Y100243D02*
Y103025D01*
X983071Y88996D02*
X991966D01*
X974177D02*
X983071D01*
X998255Y95285D02*
Y95285D01*
X998255Y95285D02*
X998255Y95285D01*
X1064169Y93864D02*
X1095756Y125451D01*
X1009766Y93864D02*
X1064169D01*
X948400Y143510D02*
X971550D01*
X936752Y131862D02*
X948400Y143510D01*
X936752Y101854D02*
Y131862D01*
X949216Y104884D02*
X949960Y104140D01*
X961814D02*
X962559Y103396D01*
X947420Y106680D02*
X949216Y104884D01*
X949960Y104140D02*
X961814D01*
X962559Y103396D02*
X962930Y103025D01*
X1090676Y156233D02*
X1095756Y151152D01*
Y125451D02*
Y151152D01*
X1090676Y156233D02*
Y161203D01*
X1086612Y129688D02*
Y159520D01*
X1061720Y106680D02*
X1072642Y117602D01*
X965962Y162814D02*
X975471Y172323D01*
X756760Y162814D02*
X965962D01*
X934720Y284480D02*
X947420Y297180D01*
X852932Y351282D02*
X858520D01*
X694944Y224630D02*
X756760Y162814D01*
X957326Y81280D02*
X1061720D01*
X936752Y101854D02*
X957326Y81280D01*
X1036320Y347980D02*
X1049020Y360680D01*
X1036320Y328676D02*
Y347980D01*
X1032256Y324612D02*
X1036320Y328676D01*
X858520Y351282D02*
Y360680D01*
X847344Y345694D02*
X852932Y351282D01*
X847344Y311912D02*
Y345694D01*
Y311912D02*
X895604Y263652D01*
D59*
X952820Y43180D02*
D03*
D60*
X972820D02*
D03*
D66*
X1026904Y158006D02*
D03*
X1050738Y159494D02*
D03*
X962559Y103396D02*
D03*
D67*
X58420Y271780D02*
Y335280D01*
Y271780D02*
X118110Y212090D01*
X58420Y335280D02*
X198120Y474980D01*
D68*
X1260094Y229870D02*
X1271270D01*
X591820Y355600D02*
X612140Y335280D01*
X736600D01*
X759460Y312420D01*
X775970Y295910D01*
X1277620Y325912D02*
Y396972D01*
X1251189Y299481D02*
X1277620Y325912D01*
X1276096Y398496D02*
X1277620Y396972D01*
X1276096Y398496D02*
Y400558D01*
X1173988Y412750D02*
X1248410D01*
X1156970Y429768D02*
X1173988Y412750D01*
X820420Y220980D02*
X826770Y227330D01*
X744220Y220980D02*
X820420D01*
X1025906Y529466D02*
X1048642Y506730D01*
X1112520D01*
X1125220Y501475D02*
Y525780D01*
X1037511Y413766D02*
X1125220Y501475D01*
X839470Y240030D02*
X902970D01*
X806704Y272796D02*
X839470Y240030D01*
X1417320Y411480D02*
X1459708D01*
X1466058Y405130D01*
X1468120D01*
X1438910Y455930D02*
X1584612D01*
X1430782Y447802D02*
X1438910Y455930D01*
X1584612D02*
X1587152Y453390D01*
X1635252D01*
X1499870Y407830D02*
Y442976D01*
Y407830D02*
X1506220Y401480D01*
X1025906Y555494D02*
X1035814Y565401D01*
X1036320Y551180D02*
X1066038Y521462D01*
X1035814Y565401D02*
X1036053D01*
X1066038Y521462D02*
X1101090D01*
X1025906Y529466D02*
Y555494D01*
X1175258Y185693D02*
X1178850Y189285D01*
X1186658Y195580D02*
X1188720D01*
X1180363Y189285D02*
X1186658Y195580D01*
X1175258Y148366D02*
Y185693D01*
X1178850Y189285D02*
X1180363D01*
X1506220Y367030D02*
Y401480D01*
X1145032Y486410D02*
X1164336Y505714D01*
X1130107Y486410D02*
X1145032D01*
X1122042Y478346D02*
X1130107Y486410D01*
X1122042Y472514D02*
Y478346D01*
X1112520Y462992D02*
X1122042Y472514D01*
X1112520Y462280D02*
Y462992D01*
X804672Y413766D02*
X1037511D01*
X1250950Y485618D02*
X1258561Y478007D01*
Y429269D02*
Y478007D01*
X1250950Y485618D02*
Y487680D01*
X1101090Y130335D02*
Y158750D01*
Y130335D02*
X1103630Y127795D01*
X1099820Y160020D02*
X1101090Y158750D01*
X1098550Y180340D02*
X1106393D01*
X1118870Y167863D01*
X1103630Y101443D02*
Y127795D01*
X1118870Y143510D02*
Y167863D01*
X1029154Y26966D02*
X1103630Y101443D01*
X1175258Y148366D02*
X1183502Y140122D01*
Y138060D02*
Y140122D01*
X610608Y26966D02*
X1029154D01*
X514384Y123190D02*
X610608Y26966D01*
X426720Y123190D02*
X514384D01*
X759460Y312420D02*
X782320Y335280D01*
X756920Y309880D02*
X759460Y312420D01*
X736600Y335280D02*
X782320D01*
X794766Y403860D02*
X804672Y413766D01*
X794766Y323088D02*
Y403860D01*
X786384Y314706D02*
X794766Y323088D01*
X786384Y234264D02*
Y314706D01*
X1317498Y384048D02*
Y399076D01*
X1332992Y414570D01*
X1370838Y434848D02*
X1383792Y447802D01*
X1430782D01*
X870966Y347726D02*
Y385318D01*
X858520Y335280D02*
X870966Y347726D01*
X691896Y37380D02*
Y130048D01*
X1037844Y322580D02*
X1116588D01*
X1037082Y321818D02*
X1037844Y322580D01*
X1037082Y314706D02*
Y321818D01*
X1032256Y309880D02*
X1037082Y314706D01*
X1023620Y309880D02*
X1032256D01*
X1129284Y386588D02*
X1145286Y402590D01*
X1129284Y304904D02*
Y386588D01*
X1316736Y436880D02*
Y477266D01*
X980440Y360680D02*
X1023620D01*
X1226312Y196088D02*
X1260094Y229870D01*
X1226312Y169672D02*
Y196088D01*
X1214120Y157480D02*
X1226312Y169672D01*
X502920Y259080D02*
X518668D01*
X634238Y143510D01*
Y91948D02*
Y143510D01*
Y91948D02*
X657860Y68326D01*
D69*
X502920Y159080D02*
D03*
Y259080D02*
D03*
D70*
X1061720Y132080D02*
D03*
Y106680D02*
D03*
Y157480D02*
D03*
Y182880D02*
D03*
X1214120Y233680D02*
D03*
Y208280D02*
D03*
Y182880D02*
D03*
D71*
X1061720Y81280D02*
D03*
X1214120Y157480D02*
D03*
D72*
X285750Y159420D02*
D03*
X133150D02*
D03*
X82750D02*
D03*
X32350D02*
D03*
Y84420D02*
D03*
X82750D02*
D03*
X133150D02*
D03*
X285750D02*
D03*
D73*
X1023620Y360680D02*
D03*
Y335280D02*
D03*
Y309880D02*
D03*
X1049020Y360680D02*
D03*
Y335280D02*
D03*
X980440Y360680D02*
D03*
Y335280D02*
D03*
X972820Y106680D02*
D03*
X947420D02*
D03*
X1163320Y233680D02*
D03*
Y208280D02*
D03*
D74*
X1049020Y309880D02*
D03*
X980440D02*
D03*
X1163320Y182880D02*
D03*
D75*
X922020Y106680D02*
D03*
D76*
X654920Y436880D02*
D03*
X629920D02*
D03*
X603920D02*
D03*
D77*
X883920Y360680D02*
D03*
D78*
Y335280D02*
D03*
X858520Y360680D02*
D03*
Y335280D02*
D03*
X833120Y360680D02*
D03*
Y335280D02*
D03*
X807720Y360680D02*
D03*
Y335280D02*
D03*
X782320Y360680D02*
D03*
Y335280D02*
D03*
D79*
X25400Y25400D02*
D03*
X1727200D02*
D03*
Y660400D02*
D03*
X25400D02*
D03*
D80*
X1271270Y229870D02*
D03*
X1243330Y247650D02*
D03*
X591820Y355600D02*
D03*
X1248410Y299720D02*
D03*
X946963Y335280D02*
D03*
X960120Y284480D02*
D03*
X1248410Y412750D02*
D03*
X995680Y271780D02*
D03*
X979401Y208280D02*
D03*
X993891Y222769D02*
D03*
X990328Y185928D02*
D03*
X972704Y227446D02*
D03*
X966470Y189230D02*
D03*
X953654Y208396D02*
D03*
X953759Y227352D02*
D03*
X826770Y227330D02*
D03*
X744220Y220980D02*
D03*
X1017154Y278246D02*
D03*
X1112520Y506730D02*
D03*
X1125220Y525780D02*
D03*
X1036320Y170180D02*
D03*
X902970Y240030D02*
D03*
X1468120Y405130D02*
D03*
X1537970Y455930D02*
D03*
X1499870Y442976D02*
D03*
X1036320Y551180D02*
D03*
X1036053Y565401D02*
D03*
X1188720Y195580D02*
D03*
X1417320Y411480D02*
D03*
X1506220Y367030D02*
D03*
X1163320Y506730D02*
D03*
X1112520Y462280D02*
D03*
X1258561Y429269D02*
D03*
X118110Y212090D02*
D03*
X1151890Y162560D02*
D03*
X1085850Y198120D02*
D03*
X1012952Y250190D02*
D03*
X1031240Y247650D02*
D03*
X1144270Y210820D02*
D03*
X1067673Y228203D02*
D03*
X1104806Y209296D02*
D03*
X1060450Y215900D02*
D03*
X1026160Y152400D02*
D03*
X996950Y115570D02*
D03*
X1009766Y93864D02*
D03*
X988060Y148590D02*
D03*
X971550Y143510D02*
D03*
X1098550Y180340D02*
D03*
X1099820Y160020D02*
D03*
X1086612Y129688D02*
D03*
X1118870Y143510D02*
D03*
X1183502Y138060D02*
D03*
X426720Y123190D02*
D03*
X934720Y284480D02*
D03*
X198120Y474980D02*
D03*
X1156970Y429768D02*
D03*
X1250950Y487680D02*
D03*
X1101090Y521462D02*
D03*
X786384Y234264D02*
D03*
X1276096Y400558D02*
D03*
X1317498Y384048D02*
D03*
X1332992Y414570D02*
D03*
X1370838Y434848D02*
D03*
X1635252Y453390D02*
D03*
X870966Y385318D02*
D03*
X691896Y37380D02*
D03*
Y130048D02*
D03*
X694944Y224630D02*
D03*
X806704Y272796D02*
D03*
X1116588Y322580D02*
D03*
X1145286Y402590D02*
D03*
X1129284Y304904D02*
D03*
X1316736Y436880D02*
D03*
Y477266D02*
D03*
X775970Y295910D02*
D03*
X756920Y309880D02*
D03*
X657860Y68326D02*
D03*
X895604Y263652D02*
D03*
M02*
