G04*
G04 #@! TF.GenerationSoftware,Altium Limited,Altium Designer,23.2.1 (34)*
G04*
G04 Layer_Color=65535*
%FSLAX44Y44*%
%MOMM*%
G71*
G04*
G04 #@! TF.SameCoordinates,88D0D14B-AD0B-4371-A2B6-2D90086A33F9*
G04*
G04*
G04 #@! TF.FilePolarity,Positive*
G04*
G01*
G75*
%ADD10C,0.2500*%
%ADD11C,0.2000*%
%ADD12C,0.4000*%
%ADD13C,0.5000*%
%ADD14C,0.3000*%
%ADD15C,0.2540*%
%ADD16C,0.1524*%
%ADD17C,0.1000*%
G36*
X760620Y172345D02*
X755461D01*
Y173635D01*
X760620D01*
Y172345D01*
D02*
G37*
G36*
X723720Y170915D02*
X725966D01*
Y169625D01*
X723720D01*
Y165716D01*
X722430D01*
Y169625D01*
X720807D01*
Y170915D01*
X722430D01*
Y174316D01*
X723720D01*
Y170915D01*
D02*
G37*
G36*
X656779Y354685D02*
X651619D01*
Y355975D01*
X656779D01*
Y354685D01*
D02*
G37*
G36*
X689809Y358695D02*
X691433D01*
Y357405D01*
X689809D01*
Y354004D01*
X688520D01*
Y357405D01*
X686273D01*
Y358695D01*
X688520D01*
Y362604D01*
X689809D01*
Y358695D01*
D02*
G37*
D10*
X1464970Y444780D02*
G03*
X1464970Y444780I-1250J0D01*
G01*
X932815Y242880D02*
G03*
X932815Y242880I-1250J0D01*
G01*
X16020Y571180D02*
G03*
X16020Y571180I-1250J0D01*
G01*
Y329880D02*
G03*
X16020Y329880I-1250J0D01*
G01*
X1308770Y530580D02*
G03*
X1308770Y530580I-1250J0D01*
G01*
X1733470Y422280D02*
G03*
X1733470Y422280I-1250J0D01*
G01*
X1728920Y543880D02*
G03*
X1728920Y543880I-1250J0D01*
G01*
X1050270Y290680D02*
G03*
X1050270Y290680I-1250J0D01*
G01*
X981690D02*
G03*
X981690Y290680I-1250J0D01*
G01*
X904070Y106680D02*
G03*
X904070Y106680I-1250J0D01*
G01*
X1164570Y163680D02*
G03*
X1164570Y163680I-1250J0D01*
G01*
X340170Y90330D02*
G03*
X340170Y90330I-1250J0D01*
G01*
X668170Y224630D02*
G03*
X668170Y224630I-1250J0D01*
G01*
X1139170Y566980D02*
G03*
X1139170Y566980I-1250J0D01*
G01*
Y497180D02*
G03*
X1139170Y497180I-1250J0D01*
G01*
X1088370D02*
G03*
X1088370Y497180I-1250J0D01*
G01*
X1136470Y163880D02*
G03*
X1136470Y163880I-1250J0D01*
G01*
X1112670Y389730D02*
G03*
X1112670Y389730I-1250J0D01*
G01*
D11*
X632920Y209080D02*
G03*
X632920Y209080I-130000J0D01*
G01*
X1364070Y580880D02*
G03*
X1364070Y578880I0J-1000D01*
G01*
D02*
G03*
X1364070Y580880I0J1000D01*
G01*
X1434220Y477780D02*
X1451220D01*
X1434220Y446780D02*
X1451220D01*
X1434220D02*
Y477780D01*
X1451220Y446780D02*
Y477780D01*
X497840Y354660D02*
X508000D01*
X502920Y349580D02*
Y359740D01*
X1048270Y197080D02*
X1075170D01*
X1048270Y67080D02*
Y197080D01*
Y67080D02*
X1075170D01*
Y197080D01*
X14170Y90170D02*
Y153670D01*
X309250Y58420D02*
Y185420D01*
X14170Y58420D02*
Y90170D01*
Y58420D02*
X309250D01*
X14170Y153670D02*
Y185420D01*
X15594D01*
X309250D01*
X664972Y45900D02*
Y47900D01*
X645668Y45614D02*
Y47614D01*
X664972Y114946D02*
Y116946D01*
X645668Y114660D02*
Y116660D01*
X1103122Y550450D02*
Y552450D01*
X1083818Y550164D02*
Y552164D01*
X1219486Y478028D02*
X1221486D01*
X1219200Y497332D02*
X1221200D01*
X1052068Y549910D02*
Y551910D01*
X1071372Y550196D02*
Y552196D01*
X1527154Y446532D02*
X1529154D01*
X1527440Y427228D02*
X1529440D01*
X1476640Y325628D02*
X1478640D01*
X1476354Y344932D02*
X1478354D01*
X1476354Y395732D02*
X1478354D01*
X1476640Y376428D02*
X1478640D01*
X1527440Y325628D02*
X1529440D01*
X1527154Y344932D02*
X1529154D01*
X1280054Y446532D02*
X1282054D01*
X1280340Y427228D02*
X1282340D01*
X1219740D02*
X1221740D01*
X1219454Y446532D02*
X1221454D01*
X1166622Y372396D02*
Y374396D01*
X1147318Y372110D02*
Y374110D01*
X1280340Y478028D02*
X1282340D01*
X1280054Y497332D02*
X1282054D01*
X1343004Y446532D02*
X1345004D01*
X1343290Y427228D02*
X1345290D01*
X1219740Y376428D02*
X1221740D01*
X1219454Y395732D02*
X1221454D01*
X1280054D02*
X1282054D01*
X1280340Y376428D02*
X1282340D01*
X1127940Y109728D02*
X1129940D01*
X1127654Y129032D02*
X1129654D01*
X1124204Y78232D02*
X1126204D01*
X1124490Y58928D02*
X1126490D01*
X868172Y182150D02*
Y184150D01*
X848868Y181864D02*
Y183864D01*
X868172Y118396D02*
Y120396D01*
X848868Y118110D02*
Y120110D01*
X756190Y452628D02*
X758190D01*
X755904Y471932D02*
X757904D01*
X822854D02*
X824854D01*
X823140Y452628D02*
X825140D01*
X945320Y235780D02*
X1000320D01*
Y180780D02*
Y235780D01*
X945320Y180780D02*
X1000320D01*
X945320D02*
Y235780D01*
X25270Y511680D02*
Y517180D01*
Y511680D02*
X152270D01*
Y517180D01*
Y585180D02*
Y590680D01*
X25270D02*
X152270D01*
X25270Y585180D02*
Y590680D01*
Y270380D02*
Y275880D01*
Y270380D02*
X152270D01*
Y275880D01*
Y343880D02*
Y349380D01*
X25270D02*
X152270D01*
X25270Y343880D02*
Y349380D01*
X1412797Y374830D02*
X1437859D01*
X1412797Y397330D02*
X1437859D01*
X1334939D02*
X1360001D01*
X1334939Y374830D02*
X1360001D01*
X1328589Y476430D02*
X1353651D01*
X1328589Y498930D02*
X1353651D01*
X1168220Y290999D02*
Y316061D01*
X1145720Y290999D02*
Y316061D01*
X1513397Y374830D02*
X1538459D01*
X1513397Y397330D02*
X1538459D01*
X1278020Y597380D02*
X1284020D01*
Y530380D02*
Y597380D01*
X1278020Y530380D02*
X1284020D01*
X1721720Y402780D02*
Y408280D01*
X1594720Y402780D02*
X1721720D01*
X1594720D02*
Y408280D01*
Y476280D02*
Y481780D01*
X1721720D01*
Y476280D02*
Y481780D01*
X1717170Y524380D02*
Y529880D01*
X1590170Y524380D02*
X1717170D01*
X1590170D02*
Y529880D01*
Y597880D02*
Y603380D01*
X1717170D01*
Y597880D02*
Y603380D01*
X1010919Y297182D02*
X1061719D01*
Y373382D01*
X1010919D02*
X1061719D01*
X1010919Y297182D02*
Y373382D01*
X967990Y373380D02*
X992890D01*
X967990Y297180D02*
X992890D01*
Y373380D01*
X967990Y297180D02*
Y373380D01*
X985520Y94230D02*
Y119130D01*
X909320Y94230D02*
Y119130D01*
Y94230D02*
X985520D01*
X909320Y119130D02*
X985520D01*
X1150870Y246380D02*
X1175770D01*
X1150870Y170180D02*
X1175770D01*
Y246380D01*
X1150870Y170180D02*
Y246380D01*
X941070Y54180D02*
X984570D01*
Y32180D02*
Y54180D01*
X941070Y32180D02*
X984570D01*
X941070D02*
Y54180D01*
X1200670Y247880D02*
X1227570D01*
X1200670Y143280D02*
Y247880D01*
Y143280D02*
X1227570D01*
Y247880D01*
X852997Y247830D02*
X878059D01*
X852997Y270330D02*
X878059D01*
X1111070Y292657D02*
Y317719D01*
X1088570Y292657D02*
Y317719D01*
X342270Y98880D02*
X358770D01*
Y114480D01*
X342270D02*
X358770D01*
X342270Y98880D02*
Y114480D01*
X647070Y216080D02*
X663570D01*
X647070Y200480D02*
Y216080D01*
Y200480D02*
X663570D01*
Y216080D01*
X1154420Y533380D02*
Y539980D01*
X1146270Y533380D02*
X1154420D01*
Y555980D02*
Y562580D01*
X1146270D02*
X1154420D01*
Y463580D02*
Y470180D01*
X1146270Y463580D02*
X1154420D01*
Y486180D02*
Y492780D01*
X1146270D02*
X1154420D01*
X1103620Y463580D02*
Y470180D01*
X1095470Y463580D02*
X1103620D01*
Y486180D02*
Y492780D01*
X1095470D02*
X1103620D01*
X1118720Y190880D02*
Y197480D01*
X1126870D01*
X1118720Y168280D02*
Y174880D01*
Y168280D02*
X1126870D01*
X796439Y236541D02*
Y265603D01*
X819001Y236541D02*
Y265603D01*
X717401Y236541D02*
Y265603D01*
X694839Y236541D02*
Y265603D01*
X768201Y236541D02*
Y265603D01*
X745639Y236541D02*
Y265603D01*
X1091570Y381180D02*
X1108070D01*
X1091570Y365580D02*
Y381180D01*
Y365580D02*
X1108070D01*
Y381180D01*
X728520Y392730D02*
X883920D01*
X728520Y301230D02*
Y392730D01*
Y301230D02*
X934720D01*
Y360680D01*
D12*
X322479Y164380D02*
G03*
X322479Y164380I-1259J0D01*
G01*
D13*
X956320Y227280D02*
G03*
X956320Y227280I-2500J0D01*
G01*
D14*
X567920Y436880D02*
G03*
X568920Y436880I500J0D01*
G01*
D02*
G03*
X567920Y436880I-500J0D01*
G01*
D15*
X450049Y398018D02*
X465328D01*
X494620Y427310D01*
X409620Y427400D02*
X439002Y398018D01*
X409620Y427400D02*
Y500380D01*
X494620D01*
Y427310D02*
Y500380D01*
X439002Y398018D02*
X450049D01*
X1380772Y285332D02*
Y296379D01*
X1278410Y340950D02*
X1351480D01*
X1278410Y255950D02*
Y340950D01*
Y255950D02*
X1351390D01*
X1380772Y285332D01*
X1351480Y340950D02*
X1380772Y311658D01*
Y296379D02*
Y311658D01*
X249100Y593090D02*
Y599457D01*
X297377D01*
X335263D02*
X336110Y598610D01*
Y590804D02*
Y598610D01*
X297377Y502903D02*
X336110D01*
Y508762D01*
X297377Y599457D02*
X335263D01*
X292100Y502903D02*
X297377D01*
X249100D02*
X292100D01*
X249100D02*
Y508508D01*
Y236203D02*
Y241808D01*
Y236203D02*
X292100D01*
X297377D01*
Y332757D02*
X335263D01*
X336110Y236203D02*
Y242062D01*
X297377Y236203D02*
X336110D01*
Y324104D02*
Y331910D01*
X335263Y332757D02*
X336110Y331910D01*
X249100Y332757D02*
X297377D01*
X249100Y326390D02*
Y332757D01*
X384553Y380996D02*
X382014Y383535D01*
X376935D01*
X374396Y380996D01*
Y370839D01*
X376935Y368300D01*
X382014D01*
X384553Y370839D01*
X389631Y380996D02*
X392170Y383535D01*
X397249D01*
X399788Y380996D01*
Y378457D01*
X397249Y375918D01*
X394709D01*
X397249D01*
X399788Y373378D01*
Y370839D01*
X397249Y368300D01*
X392170D01*
X389631Y370839D01*
X1511297Y53340D02*
X1501140D01*
X1511297Y63497D01*
Y66036D01*
X1508757Y68575D01*
X1503679D01*
X1501140Y66036D01*
X1526532Y53340D02*
X1516375D01*
X1526532Y63497D01*
Y66036D01*
X1523993Y68575D01*
X1518914D01*
X1516375Y66036D01*
X1531610Y53340D02*
X1541767Y63497D01*
X1557002Y53340D02*
X1546845D01*
X1557002Y63497D01*
Y66036D01*
X1554463Y68575D01*
X1549384D01*
X1546845Y66036D01*
X1562080D02*
X1564619Y68575D01*
X1569698D01*
X1572237Y66036D01*
Y63497D01*
X1569698Y60957D01*
X1567159D01*
X1569698D01*
X1572237Y58418D01*
Y55879D01*
X1569698Y53340D01*
X1564619D01*
X1562080Y55879D01*
X1511297Y91436D02*
X1508757Y93975D01*
X1503679D01*
X1501140Y91436D01*
Y88897D01*
X1503679Y86357D01*
X1508757D01*
X1511297Y83818D01*
Y81279D01*
X1508757Y78740D01*
X1503679D01*
X1501140Y81279D01*
X1518914Y78740D02*
X1523993D01*
X1526532Y81279D01*
Y86357D01*
X1523993Y88897D01*
X1518914D01*
X1516375Y86357D01*
Y81279D01*
X1518914Y78740D01*
X1531610D02*
X1536689D01*
X1534149D01*
Y93975D01*
X1531610D01*
X1554463D02*
Y78740D01*
X1546845D01*
X1544306Y81279D01*
Y86357D01*
X1546845Y88897D01*
X1554463D01*
X1567159Y78740D02*
X1562080D01*
X1559541Y81279D01*
Y86357D01*
X1562080Y88897D01*
X1567159D01*
X1569698Y86357D01*
Y83818D01*
X1559541D01*
X1582394Y78740D02*
X1577315D01*
X1574776Y81279D01*
Y86357D01*
X1577315Y88897D01*
X1582394D01*
X1584933Y86357D01*
Y83818D01*
X1574776D01*
X1590011Y88897D02*
Y78740D01*
Y83818D01*
X1592550Y86357D01*
X1595090Y88897D01*
X1597629D01*
X1615403Y91436D02*
X1612864Y93975D01*
X1607785D01*
X1605246Y91436D01*
Y88897D01*
X1607785Y86357D01*
X1612864D01*
X1615403Y83818D01*
Y81279D01*
X1612864Y78740D01*
X1607785D01*
X1605246Y81279D01*
X1623021Y91436D02*
Y88897D01*
X1620481D01*
X1625560D01*
X1623021D01*
Y81279D01*
X1625560Y78740D01*
X1635717Y88897D02*
X1640795D01*
X1643334Y86357D01*
Y78740D01*
X1635717D01*
X1633177Y81279D01*
X1635717Y83818D01*
X1643334D01*
X1650952Y91436D02*
Y88897D01*
X1648412D01*
X1653491D01*
X1650952D01*
Y81279D01*
X1653491Y78740D01*
X1661108D02*
X1666187D01*
X1663647D01*
Y88897D01*
X1661108D01*
X1676343Y78740D02*
X1681422D01*
X1683961Y81279D01*
Y86357D01*
X1681422Y88897D01*
X1676343D01*
X1673804Y86357D01*
Y81279D01*
X1676343Y78740D01*
X1689039D02*
Y88897D01*
X1696657D01*
X1699196Y86357D01*
Y78740D01*
X1511297Y119375D02*
X1506218D01*
X1508757D01*
Y106679D01*
X1506218Y104140D01*
X1503679D01*
X1501140Y106679D01*
X1523993Y104140D02*
X1518914D01*
X1516375Y106679D01*
Y111757D01*
X1518914Y114297D01*
X1523993D01*
X1526532Y111757D01*
Y109218D01*
X1516375D01*
X1531610Y104140D02*
X1536689D01*
X1534149D01*
Y119375D01*
X1531610D01*
X1544306Y104140D02*
X1549384D01*
X1546845D01*
Y119375D01*
X1544306D01*
X1564619Y104140D02*
X1559541D01*
X1557002Y106679D01*
Y111757D01*
X1559541Y114297D01*
X1564619D01*
X1567159Y111757D01*
Y109218D01*
X1557002D01*
X1597629Y116836D02*
X1595090Y119375D01*
X1590011D01*
X1587472Y116836D01*
Y106679D01*
X1590011Y104140D01*
X1595090D01*
X1597629Y106679D01*
X1602707Y104140D02*
X1607785D01*
X1605246D01*
Y119375D01*
X1602707D01*
X1617942Y114297D02*
X1623021D01*
X1625560Y111757D01*
Y104140D01*
X1617942D01*
X1615403Y106679D01*
X1617942Y109218D01*
X1625560D01*
X1638256Y104140D02*
X1633177D01*
X1630638Y106679D01*
Y111757D01*
X1633177Y114297D01*
X1638256D01*
X1640795Y111757D01*
Y109218D01*
X1630638D01*
X1645873Y104140D02*
X1653491D01*
X1656030Y106679D01*
X1653491Y109218D01*
X1648412D01*
X1645873Y111757D01*
X1648412Y114297D01*
X1656030D01*
X260350Y581660D02*
X262889Y579121D01*
Y574042D01*
X265428Y571503D01*
X260350Y530860D02*
X262889Y528321D01*
Y523242D01*
X265429Y520703D01*
X320040Y581660D02*
Y571503D01*
X317498Y531114D02*
Y520957D01*
X322577Y526036D02*
X312420D01*
X317498Y264414D02*
Y254257D01*
X322577Y259336D02*
X312420D01*
X320040Y314960D02*
Y304803D01*
X260350Y264160D02*
X262889Y261621D01*
Y256542D01*
X265429Y254003D01*
X260350Y314960D02*
X262889Y312421D01*
Y307342D01*
X265428Y304803D01*
X653031Y388870D02*
X650491Y391409D01*
X645413D01*
X642874Y388870D01*
Y378713D01*
X645413Y376174D01*
X650491D01*
X653031Y378713D01*
X658109Y376174D02*
X663187D01*
X660648D01*
Y391409D01*
X658109Y388870D01*
X1202690Y625343D02*
X1212847D01*
X1207768D01*
Y610108D01*
X1225543D02*
Y625343D01*
X1217925Y617725D01*
X1228082D01*
X721357Y226310D02*
X718818Y228849D01*
X713739D01*
X711200Y226310D01*
Y216153D01*
X713739Y213614D01*
X718818D01*
X721357Y216153D01*
X726435Y213614D02*
X731513D01*
X728974D01*
Y228849D01*
X726435Y226310D01*
X739131D02*
X741670Y228849D01*
X746749D01*
X749288Y226310D01*
Y223771D01*
X746749Y221231D01*
X744209D01*
X746749D01*
X749288Y218692D01*
Y216153D01*
X746749Y213614D01*
X741670D01*
X739131Y216153D01*
X1112012Y221483D02*
X1122169D01*
X1117090D01*
Y206248D01*
X1137404Y221483D02*
X1127247D01*
Y213866D01*
X1132325Y216405D01*
X1134865D01*
X1137404Y213866D01*
Y208787D01*
X1134865Y206248D01*
X1129786D01*
X1127247Y208787D01*
X1134618Y522473D02*
X1144775D01*
X1139696D01*
Y507238D01*
X1149853Y519934D02*
X1152392Y522473D01*
X1157471D01*
X1160010Y519934D01*
Y517395D01*
X1157471Y514855D01*
X1154931D01*
X1157471D01*
X1160010Y512316D01*
Y509777D01*
X1157471Y507238D01*
X1152392D01*
X1149853Y509777D01*
X1134618Y592323D02*
X1144775D01*
X1139696D01*
Y577088D01*
X1160010D02*
X1149853D01*
X1160010Y587245D01*
Y589784D01*
X1157471Y592323D01*
X1152392D01*
X1149853Y589784D01*
X1083818Y522473D02*
X1093975D01*
X1088896D01*
Y507238D01*
X1099053D02*
X1104131D01*
X1101592D01*
Y522473D01*
X1099053Y519934D01*
X20320Y194056D02*
Y209291D01*
X27938D01*
X30477Y206752D01*
Y201674D01*
X27938Y199134D01*
X20320D01*
X25398D02*
X30477Y194056D01*
X45712Y209291D02*
X35555D01*
Y194056D01*
X45712D01*
X35555Y201674D02*
X40633D01*
X50790Y194056D02*
X55869D01*
X53329D01*
Y209291D01*
X50790Y206752D01*
X809244Y480060D02*
Y495295D01*
X816861D01*
X819401Y492756D01*
Y487677D01*
X816861Y485138D01*
X809244D01*
X814322D02*
X819401Y480060D01*
X834636D02*
X824479D01*
X834636Y490217D01*
Y492756D01*
X832097Y495295D01*
X827018D01*
X824479Y492756D01*
X849871Y480060D02*
X839714D01*
X849871Y490217D01*
Y492756D01*
X847332Y495295D01*
X842253D01*
X839714Y492756D01*
X742188Y480060D02*
Y495295D01*
X749806D01*
X752345Y492756D01*
Y487677D01*
X749806Y485138D01*
X742188D01*
X747266D02*
X752345Y480060D01*
X767580D02*
X757423D01*
X767580Y490217D01*
Y492756D01*
X765041Y495295D01*
X759962D01*
X757423Y492756D01*
X772658Y480060D02*
X777737D01*
X775197D01*
Y495295D01*
X772658Y492756D01*
X850900Y144272D02*
Y159507D01*
X858518D01*
X861057Y156968D01*
Y151889D01*
X858518Y149350D01*
X850900D01*
X855978D02*
X861057Y144272D01*
X876292D02*
X866135D01*
X876292Y154429D01*
Y156968D01*
X873753Y159507D01*
X868674D01*
X866135Y156968D01*
X881370D02*
X883909Y159507D01*
X888988D01*
X891527Y156968D01*
Y146811D01*
X888988Y144272D01*
X883909D01*
X881370Y146811D01*
Y156968D01*
X850900Y207772D02*
Y223007D01*
X858518D01*
X861057Y220468D01*
Y215389D01*
X858518Y212850D01*
X850900D01*
X855978D02*
X861057Y207772D01*
X866135D02*
X871213D01*
X868674D01*
Y223007D01*
X866135Y220468D01*
X878831Y210311D02*
X881370Y207772D01*
X886449D01*
X888988Y210311D01*
Y220468D01*
X886449Y223007D01*
X881370D01*
X878831Y220468D01*
Y217929D01*
X881370Y215389D01*
X888988D01*
X1110488Y86360D02*
Y101595D01*
X1118105D01*
X1120645Y99056D01*
Y93977D01*
X1118105Y91438D01*
X1110488D01*
X1115566D02*
X1120645Y86360D01*
X1125723D02*
X1130801D01*
X1128262D01*
Y101595D01*
X1125723Y99056D01*
X1138419D02*
X1140958Y101595D01*
X1146037D01*
X1148576Y99056D01*
Y96517D01*
X1146037Y93977D01*
X1148576Y91438D01*
Y88899D01*
X1146037Y86360D01*
X1140958D01*
X1138419Y88899D01*
Y91438D01*
X1140958Y93977D01*
X1138419Y96517D01*
Y99056D01*
X1140958Y93977D02*
X1146037D01*
X1114044Y137160D02*
Y152395D01*
X1121662D01*
X1124201Y149856D01*
Y144777D01*
X1121662Y142238D01*
X1114044D01*
X1119122D02*
X1124201Y137160D01*
X1129279D02*
X1134357D01*
X1131818D01*
Y152395D01*
X1129279Y149856D01*
X1141975Y152395D02*
X1152132D01*
Y149856D01*
X1141975Y139699D01*
Y137160D01*
X1266444Y403860D02*
Y419095D01*
X1274062D01*
X1276601Y416556D01*
Y411478D01*
X1274062Y408938D01*
X1266444D01*
X1271522D02*
X1276601Y403860D01*
X1281679D02*
X1286757D01*
X1284218D01*
Y419095D01*
X1281679Y416556D01*
X1304532Y419095D02*
X1299453Y416556D01*
X1294375Y411478D01*
Y406399D01*
X1296914Y403860D01*
X1301992D01*
X1304532Y406399D01*
Y408938D01*
X1301992Y411478D01*
X1294375D01*
X1205738Y403860D02*
Y419095D01*
X1213355D01*
X1215895Y416556D01*
Y411478D01*
X1213355Y408938D01*
X1205738D01*
X1210816D02*
X1215895Y403860D01*
X1220973D02*
X1226051D01*
X1223512D01*
Y419095D01*
X1220973Y416556D01*
X1243826Y419095D02*
X1233669D01*
Y411478D01*
X1238747Y414017D01*
X1241286D01*
X1243826Y411478D01*
Y406399D01*
X1241286Y403860D01*
X1236208D01*
X1233669Y406399D01*
X1329436Y454660D02*
Y469895D01*
X1337054D01*
X1339593Y467356D01*
Y462277D01*
X1337054Y459738D01*
X1329436D01*
X1334514D02*
X1339593Y454660D01*
X1344671D02*
X1349749D01*
X1347210D01*
Y469895D01*
X1344671Y467356D01*
X1364984Y454660D02*
Y469895D01*
X1357367Y462277D01*
X1367524D01*
X1266444Y505460D02*
Y520695D01*
X1274062D01*
X1276601Y518156D01*
Y513078D01*
X1274062Y510538D01*
X1266444D01*
X1271522D02*
X1276601Y505460D01*
X1281679D02*
X1286757D01*
X1284218D01*
Y520695D01*
X1281679Y518156D01*
X1294375D02*
X1296914Y520695D01*
X1301992D01*
X1304532Y518156D01*
Y515617D01*
X1301992Y513078D01*
X1299453D01*
X1301992D01*
X1304532Y510538D01*
Y507999D01*
X1301992Y505460D01*
X1296914D01*
X1294375Y507999D01*
X1149350Y398272D02*
Y413507D01*
X1156967D01*
X1159507Y410968D01*
Y405890D01*
X1156967Y403350D01*
X1149350D01*
X1154428D02*
X1159507Y398272D01*
X1164585D02*
X1169663D01*
X1167124D01*
Y413507D01*
X1164585Y410968D01*
X1187438Y398272D02*
X1177281D01*
X1187438Y408429D01*
Y410968D01*
X1184899Y413507D01*
X1179820D01*
X1177281Y410968D01*
X1205738Y454660D02*
Y469895D01*
X1213355D01*
X1215895Y467356D01*
Y462277D01*
X1213355Y459738D01*
X1205738D01*
X1210816D02*
X1215895Y454660D01*
X1220973D02*
X1226051D01*
X1223512D01*
Y469895D01*
X1220973Y467356D01*
X1233669Y454660D02*
X1238747D01*
X1236208D01*
Y469895D01*
X1233669Y467356D01*
X1266444Y454660D02*
Y469895D01*
X1274062D01*
X1276601Y467356D01*
Y462277D01*
X1274062Y459738D01*
X1266444D01*
X1271522D02*
X1276601Y454660D01*
X1281679D02*
X1286757D01*
X1284218D01*
Y469895D01*
X1281679Y467356D01*
X1294375D02*
X1296914Y469895D01*
X1301992D01*
X1304532Y467356D01*
Y457199D01*
X1301992Y454660D01*
X1296914D01*
X1294375Y457199D01*
Y467356D01*
X1513586Y353060D02*
Y368295D01*
X1521203D01*
X1523743Y365756D01*
Y360677D01*
X1521203Y358138D01*
X1513586D01*
X1518664D02*
X1523743Y353060D01*
X1528821Y355599D02*
X1531360Y353060D01*
X1536439D01*
X1538978Y355599D01*
Y365756D01*
X1536439Y368295D01*
X1531360D01*
X1528821Y365756D01*
Y363217D01*
X1531360Y360677D01*
X1538978D01*
X1462786Y403860D02*
Y419095D01*
X1470403D01*
X1472943Y416556D01*
Y411478D01*
X1470403Y408938D01*
X1462786D01*
X1467864D02*
X1472943Y403860D01*
X1478021Y416556D02*
X1480560Y419095D01*
X1485639D01*
X1488178Y416556D01*
Y414017D01*
X1485639Y411478D01*
X1488178Y408938D01*
Y406399D01*
X1485639Y403860D01*
X1480560D01*
X1478021Y406399D01*
Y408938D01*
X1480560Y411478D01*
X1478021Y414017D01*
Y416556D01*
X1480560Y411478D02*
X1485639D01*
X1462786Y353060D02*
Y368295D01*
X1470403D01*
X1472943Y365756D01*
Y360677D01*
X1470403Y358138D01*
X1462786D01*
X1467864D02*
X1472943Y353060D01*
X1478021Y368295D02*
X1488178D01*
Y365756D01*
X1478021Y355599D01*
Y353060D01*
X1513586Y454660D02*
Y469895D01*
X1521203D01*
X1523743Y467356D01*
Y462277D01*
X1521203Y459738D01*
X1513586D01*
X1518664D02*
X1523743Y454660D01*
X1538978Y469895D02*
X1533899Y467356D01*
X1528821Y462277D01*
Y457199D01*
X1531360Y454660D01*
X1536439D01*
X1538978Y457199D01*
Y459738D01*
X1536439Y462277D01*
X1528821D01*
X1054100Y576072D02*
Y591307D01*
X1061718D01*
X1064257Y588768D01*
Y583689D01*
X1061718Y581150D01*
X1054100D01*
X1059178D02*
X1064257Y576072D01*
X1079492Y591307D02*
X1069335D01*
Y583689D01*
X1074413Y586229D01*
X1076953D01*
X1079492Y583689D01*
Y578611D01*
X1076953Y576072D01*
X1071874D01*
X1069335Y578611D01*
X1205738Y505460D02*
Y520695D01*
X1213355D01*
X1215895Y518156D01*
Y513078D01*
X1213355Y510538D01*
X1205738D01*
X1210816D02*
X1215895Y505460D01*
X1228591D02*
Y520695D01*
X1220973Y513078D01*
X1231130D01*
X1085850Y576072D02*
Y591307D01*
X1093467D01*
X1096007Y588768D01*
Y583689D01*
X1093467Y581150D01*
X1085850D01*
X1090928D02*
X1096007Y576072D01*
X1101085Y588768D02*
X1103624Y591307D01*
X1108703D01*
X1111242Y588768D01*
Y586229D01*
X1108703Y583689D01*
X1106163D01*
X1108703D01*
X1111242Y581150D01*
Y578611D01*
X1108703Y576072D01*
X1103624D01*
X1101085Y578611D01*
X647700Y140716D02*
Y155951D01*
X655318D01*
X657857Y153412D01*
Y148334D01*
X655318Y145794D01*
X647700D01*
X652778D02*
X657857Y140716D01*
X673092D02*
X662935D01*
X673092Y150873D01*
Y153412D01*
X670553Y155951D01*
X665474D01*
X662935Y153412D01*
X647700Y71374D02*
Y86609D01*
X655318D01*
X657857Y84070D01*
Y78991D01*
X655318Y76452D01*
X647700D01*
X652778D02*
X657857Y71374D01*
X662935D02*
X668013D01*
X665474D01*
Y86609D01*
X662935Y84070D01*
X798068Y291841D02*
Y276606D01*
X808225D01*
X823460D02*
X813303D01*
X823460Y286763D01*
Y289302D01*
X820921Y291841D01*
X815842D01*
X813303Y289302D01*
X1355090Y628645D02*
Y613410D01*
X1365247D01*
X1370325D02*
X1375403D01*
X1372864D01*
Y628645D01*
X1370325Y626106D01*
X1035558Y222245D02*
Y207010D01*
Y212088D01*
X1045715Y222245D01*
X1038097Y214627D01*
X1045715Y207010D01*
X1050793D02*
X1055871D01*
X1053332D01*
Y222245D01*
X1050793Y219706D01*
X1073646Y207010D02*
X1063489D01*
X1073646Y217167D01*
Y219706D01*
X1071106Y222245D01*
X1066028D01*
X1063489Y219706D01*
X969264Y397505D02*
Y382270D01*
Y387348D01*
X979421Y397505D01*
X971803Y389888D01*
X979421Y382270D01*
X984499D02*
X989577D01*
X987038D01*
Y397505D01*
X984499Y394966D01*
X997195Y382270D02*
X1002273D01*
X999734D01*
Y397505D01*
X997195Y394966D01*
X728218Y418333D02*
Y403098D01*
Y408176D01*
X738375Y418333D01*
X730757Y410715D01*
X738375Y403098D01*
X743453D02*
X748531D01*
X745992D01*
Y418333D01*
X743453Y415794D01*
X756149D02*
X758688Y418333D01*
X763766D01*
X766306Y415794D01*
Y405637D01*
X763766Y403098D01*
X758688D01*
X756149Y405637D01*
Y415794D01*
X1012190Y397505D02*
Y382270D01*
Y387348D01*
X1022347Y397505D01*
X1014729Y389888D01*
X1022347Y382270D01*
X1027425Y384809D02*
X1029964Y382270D01*
X1035043D01*
X1037582Y384809D01*
Y394966D01*
X1035043Y397505D01*
X1029964D01*
X1027425Y394966D01*
Y392427D01*
X1029964Y389888D01*
X1037582D01*
X1200912Y273045D02*
Y257810D01*
Y262888D01*
X1211069Y273045D01*
X1203451Y265427D01*
X1211069Y257810D01*
X1216147Y270506D02*
X1218686Y273045D01*
X1223765D01*
X1226304Y270506D01*
Y267967D01*
X1223765Y265427D01*
X1226304Y262888D01*
Y260349D01*
X1223765Y257810D01*
X1218686D01*
X1216147Y260349D01*
Y262888D01*
X1218686Y265427D01*
X1216147Y267967D01*
Y270506D01*
X1218686Y265427D02*
X1223765D01*
X941578Y78989D02*
Y63754D01*
Y68832D01*
X951735Y78989D01*
X944117Y71371D01*
X951735Y63754D01*
X956813Y78989D02*
X966970D01*
Y76450D01*
X956813Y66293D01*
Y63754D01*
X902970Y143251D02*
Y128016D01*
Y133094D01*
X913127Y143251D01*
X905509Y135633D01*
X913127Y128016D01*
X928362Y143251D02*
X923283Y140712D01*
X918205Y135633D01*
Y130555D01*
X920744Y128016D01*
X925823D01*
X928362Y130555D01*
Y133094D01*
X925823Y135633D01*
X918205D01*
X1152144Y270505D02*
Y255270D01*
Y260348D01*
X1162301Y270505D01*
X1154683Y262887D01*
X1162301Y255270D01*
X1177536Y270505D02*
X1167379D01*
Y262887D01*
X1172457Y265427D01*
X1174997D01*
X1177536Y262887D01*
Y257809D01*
X1174997Y255270D01*
X1169918D01*
X1167379Y257809D01*
X1588008Y505963D02*
Y490728D01*
Y495806D01*
X1598165Y505963D01*
X1590547Y498345D01*
X1598165Y490728D01*
X1610861D02*
Y505963D01*
X1603243Y498345D01*
X1613400D01*
X1583436Y627375D02*
Y612140D01*
Y617218D01*
X1593593Y627375D01*
X1585975Y619757D01*
X1593593Y612140D01*
X1598671Y624836D02*
X1601210Y627375D01*
X1606289D01*
X1608828Y624836D01*
Y622297D01*
X1606289Y619757D01*
X1603749D01*
X1606289D01*
X1608828Y617218D01*
Y614679D01*
X1606289Y612140D01*
X1601210D01*
X1598671Y614679D01*
X14732Y373375D02*
Y358140D01*
Y363218D01*
X24889Y373375D01*
X17271Y365757D01*
X24889Y358140D01*
X40124D02*
X29967D01*
X40124Y368297D01*
Y370836D01*
X37585Y373375D01*
X32506D01*
X29967Y370836D01*
X14732Y614675D02*
Y599440D01*
Y604518D01*
X24889Y614675D01*
X17271Y607057D01*
X24889Y599440D01*
X29967D02*
X35045D01*
X32506D01*
Y614675D01*
X29967Y612136D01*
X922274Y284221D02*
X927352D01*
X924813D01*
Y268986D01*
X922274D01*
X927352D01*
X945127Y281682D02*
X942587Y284221D01*
X937509D01*
X934970Y281682D01*
Y271525D01*
X937509Y268986D01*
X942587D01*
X945127Y271525D01*
X950205Y281682D02*
X952744Y284221D01*
X957822D01*
X960362Y281682D01*
Y279143D01*
X957822Y276604D01*
X955283D01*
X957822D01*
X960362Y274064D01*
Y271525D01*
X957822Y268986D01*
X952744D01*
X950205Y271525D01*
X1413002Y503423D02*
X1418080D01*
X1415541D01*
Y488188D01*
X1413002D01*
X1418080D01*
X1435855Y500884D02*
X1433315Y503423D01*
X1428237D01*
X1425698Y500884D01*
Y490727D01*
X1428237Y488188D01*
X1433315D01*
X1435855Y490727D01*
X1451090Y488188D02*
X1440933D01*
X1451090Y498345D01*
Y500884D01*
X1448551Y503423D01*
X1443472D01*
X1440933Y500884D01*
X560070Y526283D02*
X565148D01*
X562609D01*
Y511048D01*
X560070D01*
X565148D01*
X582923Y523744D02*
X580383Y526283D01*
X575305D01*
X572766Y523744D01*
Y513587D01*
X575305Y511048D01*
X580383D01*
X582923Y513587D01*
X588001Y511048D02*
X593079D01*
X590540D01*
Y526283D01*
X588001Y523744D01*
X1092962Y418333D02*
Y403098D01*
X1100580D01*
X1103119Y405637D01*
Y415794D01*
X1100580Y418333D01*
X1092962D01*
X1108197Y415794D02*
X1110736Y418333D01*
X1115815D01*
X1118354Y415794D01*
Y413255D01*
X1115815Y410715D01*
X1113275D01*
X1115815D01*
X1118354Y408176D01*
Y405637D01*
X1115815Y403098D01*
X1110736D01*
X1108197Y405637D01*
X338836Y151633D02*
Y136398D01*
X346454D01*
X348993Y138937D01*
Y149094D01*
X346454Y151633D01*
X338836D01*
X364228Y136398D02*
X354071D01*
X364228Y146555D01*
Y149094D01*
X361689Y151633D01*
X356610D01*
X354071Y149094D01*
X648462Y253233D02*
Y237998D01*
X656079D01*
X658619Y240537D01*
Y250694D01*
X656079Y253233D01*
X648462D01*
X663697Y237998D02*
X668775D01*
X666236D01*
Y253233D01*
X663697Y250694D01*
X706625Y289302D02*
X704085Y291841D01*
X699007D01*
X696468Y289302D01*
Y279145D01*
X699007Y276606D01*
X704085D01*
X706625Y279145D01*
X711703Y276606D02*
X716781D01*
X714242D01*
Y291841D01*
X711703Y289302D01*
X732017Y276606D02*
Y291841D01*
X724399Y284223D01*
X734556D01*
X757425Y289302D02*
X754885Y291841D01*
X749807D01*
X747268Y289302D01*
Y279145D01*
X749807Y276606D01*
X754885D01*
X757425Y279145D01*
X762503Y276606D02*
X767581D01*
X765042D01*
Y291841D01*
X762503Y289302D01*
X785356Y276606D02*
X775199D01*
X785356Y286763D01*
Y289302D01*
X782816Y291841D01*
X777738D01*
X775199Y289302D01*
X863597Y291588D02*
X861058Y294127D01*
X855979D01*
X853440Y291588D01*
Y281431D01*
X855979Y278892D01*
X861058D01*
X863597Y281431D01*
X868675Y278892D02*
X873753D01*
X871214D01*
Y294127D01*
X868675Y291588D01*
X881371Y278892D02*
X886449D01*
X883910D01*
Y294127D01*
X881371Y291588D01*
X1100325Y340102D02*
X1097785Y342641D01*
X1092707D01*
X1090168Y340102D01*
Y329945D01*
X1092707Y327406D01*
X1097785D01*
X1100325Y329945D01*
X1105403Y327406D02*
X1110481D01*
X1107942D01*
Y342641D01*
X1105403Y340102D01*
X1118099D02*
X1120638Y342641D01*
X1125716D01*
X1128256Y340102D01*
Y329945D01*
X1125716Y327406D01*
X1120638D01*
X1118099Y329945D01*
Y340102D01*
X1345689Y418588D02*
X1343150Y421127D01*
X1338071D01*
X1335532Y418588D01*
Y408431D01*
X1338071Y405892D01*
X1343150D01*
X1345689Y408431D01*
X1350767D02*
X1353306Y405892D01*
X1358385D01*
X1360924Y408431D01*
Y418588D01*
X1358385Y421127D01*
X1353306D01*
X1350767Y418588D01*
Y416049D01*
X1353306Y413509D01*
X1360924D01*
X1289809Y362454D02*
X1287269Y364993D01*
X1282191D01*
X1279652Y362454D01*
Y352297D01*
X1282191Y349758D01*
X1287269D01*
X1289809Y352297D01*
X1294887Y362454D02*
X1297426Y364993D01*
X1302505D01*
X1305044Y362454D01*
Y359915D01*
X1302505Y357375D01*
X1305044Y354836D01*
Y352297D01*
X1302505Y349758D01*
X1297426D01*
X1294887Y352297D01*
Y354836D01*
X1297426Y357375D01*
X1294887Y359915D01*
Y362454D01*
X1297426Y357375D02*
X1302505D01*
X1339339Y520188D02*
X1336799Y522727D01*
X1331721D01*
X1329182Y520188D01*
Y510031D01*
X1331721Y507492D01*
X1336799D01*
X1339339Y510031D01*
X1344417Y522727D02*
X1354574D01*
Y520188D01*
X1344417Y510031D01*
Y507492D01*
X1157475Y338324D02*
X1154936Y340863D01*
X1149857D01*
X1147318Y338324D01*
Y328167D01*
X1149857Y325628D01*
X1154936D01*
X1157475Y328167D01*
X1172710Y340863D02*
X1167631Y338324D01*
X1162553Y333246D01*
Y328167D01*
X1165092Y325628D01*
X1170171D01*
X1172710Y328167D01*
Y330706D01*
X1170171Y333246D01*
X1162553D01*
X1423413Y418588D02*
X1420874Y421127D01*
X1415795D01*
X1413256Y418588D01*
Y408431D01*
X1415795Y405892D01*
X1420874D01*
X1423413Y408431D01*
X1438648Y421127D02*
X1428491D01*
Y413509D01*
X1433569Y416049D01*
X1436109D01*
X1438648Y413509D01*
Y408431D01*
X1436109Y405892D01*
X1431030D01*
X1428491Y408431D01*
X1523997Y418588D02*
X1521458Y421127D01*
X1516379D01*
X1513840Y418588D01*
Y408431D01*
X1516379Y405892D01*
X1521458D01*
X1523997Y408431D01*
X1536693Y405892D02*
Y421127D01*
X1529075Y413509D01*
X1539232D01*
X419101Y519428D02*
X416562Y521968D01*
X411483D01*
X408944Y519428D01*
Y509272D01*
X411483Y506732D01*
X416562D01*
X419101Y509272D01*
X434336Y506732D02*
X424179D01*
X434336Y516889D01*
Y519428D01*
X431797Y521968D01*
X426718D01*
X424179Y519428D01*
X242824Y356865D02*
Y341630D01*
X250441D01*
X252981Y344169D01*
Y346708D01*
X250441Y349248D01*
X242824D01*
X250441D01*
X252981Y351787D01*
Y354326D01*
X250441Y356865D01*
X242824D01*
X268216Y341630D02*
X258059D01*
X268216Y351787D01*
Y354326D01*
X265677Y356865D01*
X260598D01*
X258059Y354326D01*
X242824Y623565D02*
Y608330D01*
X250441D01*
X252981Y610869D01*
Y613408D01*
X250441Y615947D01*
X242824D01*
X250441D01*
X252981Y618487D01*
Y621026D01*
X250441Y623565D01*
X242824D01*
X258059Y608330D02*
X263137D01*
X260598D01*
Y623565D01*
X258059Y621026D01*
D16*
X718124Y200021D02*
X723248Y205131D01*
X762667D01*
Y192368D02*
Y205131D01*
X718098Y165439D02*
X718177Y172561D01*
X718098Y165439D02*
X722918Y160618D01*
X762672D01*
Y172302D01*
X718124Y200021D02*
X718152Y192874D01*
X694088Y335446D02*
X694116Y328299D01*
X649568Y356018D02*
Y367702D01*
X689322D01*
X694142Y362881D01*
X694063Y355759D02*
X694142Y362881D01*
X649573Y323189D02*
Y335952D01*
Y323189D02*
X688992D01*
X694116Y328299D01*
X1032767Y186095D02*
Y179324D01*
X1037846D01*
X1036153Y182710D01*
Y184402D01*
X1037846Y186095D01*
X1041231D01*
X1042924Y184402D01*
Y181017D01*
X1041231Y179324D01*
X1043178Y80010D02*
Y83396D01*
Y81703D01*
X1033021D01*
X1034714Y80010D01*
D17*
X575420Y399880D02*
Y492880D01*
Y399880D02*
X684420D01*
Y492880D01*
X575420D02*
X684420D01*
X1398270Y532380D02*
X1505970D01*
X1392170Y595380D02*
X1505970D01*
M02*
