G04*
G04 #@! TF.GenerationSoftware,Altium Limited,Altium Designer,23.2.1 (34)*
G04*
G04 Layer_Color=8388736*
%FSLAX44Y44*%
%MOMM*%
G71*
G04*
G04 #@! TF.SameCoordinates,88D0D14B-AD0B-4371-A2B6-2D90086A33F9*
G04*
G04*
G04 #@! TF.FilePolarity,Negative*
G04*
G01*
G75*
%ADD25R,1.6552X0.2525*%
G04:AMPARAMS|DCode=26|XSize=1.6552mm|YSize=0.2525mm|CornerRadius=0.1262mm|HoleSize=0mm|Usage=FLASHONLY|Rotation=0.000|XOffset=0mm|YOffset=0mm|HoleType=Round|Shape=RoundedRectangle|*
%AMROUNDEDRECTD26*
21,1,1.6552,0.0000,0,0,0.0*
21,1,1.4028,0.2525,0,0,0.0*
1,1,0.2525,0.7014,0.0000*
1,1,0.2525,-0.7014,0.0000*
1,1,0.2525,-0.7014,0.0000*
1,1,0.2525,0.7014,0.0000*
%
%ADD26ROUNDEDRECTD26*%
G04:AMPARAMS|DCode=27|XSize=0.2525mm|YSize=1.6552mm|CornerRadius=0.1262mm|HoleSize=0mm|Usage=FLASHONLY|Rotation=0.000|XOffset=0mm|YOffset=0mm|HoleType=Round|Shape=RoundedRectangle|*
%AMROUNDEDRECTD27*
21,1,0.2525,1.4028,0,0,0.0*
21,1,0.0000,1.6552,0,0,0.0*
1,1,0.2525,0.0000,-0.7014*
1,1,0.2525,0.0000,-0.7014*
1,1,0.2525,0.0000,0.7014*
1,1,0.2525,0.0000,0.7014*
%
%ADD27ROUNDEDRECTD27*%
%ADD30R,1.1046X1.3562*%
%ADD31R,1.3562X1.1046*%
%ADD37R,1.4562X1.3046*%
%ADD38O,1.9032X0.5532*%
%ADD39R,1.3032X3.1032*%
%ADD40R,1.6532X1.2532*%
%ADD41R,1.2532X1.6532*%
%ADD42R,3.1032X1.3032*%
%ADD43R,3.0032X1.3032*%
%ADD44R,1.7032X1.9032*%
%ADD45R,3.7032X2.2032*%
%ADD46R,6.2032X2.2032*%
%ADD47R,7.1032X5.8532*%
%ADD48R,3.0532X1.2032*%
%ADD49R,1.4232X1.1132*%
%ADD50R,1.1032X1.0032*%
%ADD51R,4.4732X1.9832*%
%ADD52C,2.7432*%
%ADD53C,1.8032*%
%ADD54R,1.8032X1.8032*%
%ADD55C,2.3032*%
%ADD56C,1.7532*%
%ADD57R,1.7532X1.7532*%
%ADD58R,1.7532X1.7532*%
%ADD59R,1.3000X1.3000*%
%ADD60C,1.3000*%
%ADD61C,1.7222*%
%ADD62R,1.8532X1.8532*%
%ADD63C,1.8532*%
%ADD64C,4.2032*%
%ADD65C,1.4732*%
D25*
X931565Y235780D02*
D03*
D26*
Y230780D02*
D03*
Y225780D02*
D03*
Y220780D02*
D03*
Y215780D02*
D03*
Y210780D02*
D03*
Y205780D02*
D03*
Y200780D02*
D03*
Y195780D02*
D03*
Y190780D02*
D03*
Y185780D02*
D03*
Y180780D02*
D03*
X1014075D02*
D03*
Y185780D02*
D03*
Y190780D02*
D03*
Y195780D02*
D03*
Y200780D02*
D03*
Y205780D02*
D03*
Y210780D02*
D03*
Y215780D02*
D03*
Y220780D02*
D03*
Y225780D02*
D03*
Y230780D02*
D03*
Y235780D02*
D03*
D27*
X945320Y167025D02*
D03*
X950320D02*
D03*
X955320D02*
D03*
X960320D02*
D03*
X965320D02*
D03*
X970320D02*
D03*
X975320D02*
D03*
X980320D02*
D03*
X985320D02*
D03*
X990320D02*
D03*
X995320D02*
D03*
X1000320D02*
D03*
Y249535D02*
D03*
X995320D02*
D03*
X990320D02*
D03*
X985320D02*
D03*
X980320D02*
D03*
X975320D02*
D03*
X970320D02*
D03*
X965320D02*
D03*
X960320D02*
D03*
X955320D02*
D03*
X950320D02*
D03*
X945320D02*
D03*
D30*
X1418320Y386080D02*
D03*
X1432336D02*
D03*
X1354478D02*
D03*
X1340462D02*
D03*
X1334112Y487680D02*
D03*
X1348128D02*
D03*
X1518920Y386080D02*
D03*
X1532936D02*
D03*
X858520Y259080D02*
D03*
X872536D02*
D03*
D31*
X1156970Y296522D02*
D03*
Y310538D02*
D03*
X1099820Y298180D02*
D03*
Y312195D02*
D03*
D37*
X807720Y259080D02*
D03*
Y243064D02*
D03*
X706120D02*
D03*
Y259080D02*
D03*
X756920Y243064D02*
D03*
Y259080D02*
D03*
D38*
X1421720Y472030D02*
D03*
Y465530D02*
D03*
Y459030D02*
D03*
Y452530D02*
D03*
X1463720Y472030D02*
D03*
Y465530D02*
D03*
Y459030D02*
D03*
Y452530D02*
D03*
D39*
X452120Y419580D02*
D03*
Y479580D02*
D03*
D40*
X655320Y55880D02*
D03*
Y37380D02*
D03*
Y125180D02*
D03*
Y106680D02*
D03*
X1093470Y560430D02*
D03*
Y541930D02*
D03*
X1061720D02*
D03*
Y560430D02*
D03*
X1156970Y382630D02*
D03*
Y364130D02*
D03*
X858520Y192130D02*
D03*
Y173630D02*
D03*
Y128630D02*
D03*
Y110130D02*
D03*
D41*
X1229720Y487680D02*
D03*
X1211220D02*
D03*
X1518920Y436880D02*
D03*
X1537420D02*
D03*
X1486620Y335280D02*
D03*
X1468120D02*
D03*
Y386080D02*
D03*
X1486620D02*
D03*
X1537420Y335280D02*
D03*
X1518920D02*
D03*
X1271820Y436880D02*
D03*
X1290320D02*
D03*
X1229720D02*
D03*
X1211220D02*
D03*
X1290320Y487680D02*
D03*
X1271820D02*
D03*
X1334770Y436880D02*
D03*
X1353270D02*
D03*
X1229720Y386080D02*
D03*
X1211220D02*
D03*
X1271820D02*
D03*
X1290320D02*
D03*
X1137920Y119380D02*
D03*
X1119420D02*
D03*
X1115970Y68580D02*
D03*
X1134470D02*
D03*
X766170Y462280D02*
D03*
X747670D02*
D03*
X814620D02*
D03*
X833120D02*
D03*
D42*
X1299210Y298450D02*
D03*
X1359210D02*
D03*
D43*
X723710Y182880D02*
D03*
X756920D02*
D03*
X655320Y345440D02*
D03*
X688530D02*
D03*
D44*
X248920Y525780D02*
D03*
Y576580D02*
D03*
X336550D02*
D03*
Y525780D02*
D03*
Y259080D02*
D03*
Y309880D02*
D03*
X248920D02*
D03*
Y259080D02*
D03*
D45*
X142770Y531180D02*
D03*
Y571180D02*
D03*
Y289880D02*
D03*
Y329880D02*
D03*
X1604220Y422280D02*
D03*
Y462280D02*
D03*
X1599670Y543880D02*
D03*
Y583880D02*
D03*
D46*
X50270Y531180D02*
D03*
Y571180D02*
D03*
Y289880D02*
D03*
Y329880D02*
D03*
X1696720Y422280D02*
D03*
Y462280D02*
D03*
X1692170Y543880D02*
D03*
Y583880D02*
D03*
D47*
X1239520Y563880D02*
D03*
D48*
X1307520Y586680D02*
D03*
Y541080D02*
D03*
D49*
X350520Y90330D02*
D03*
Y123030D02*
D03*
X655320Y224630D02*
D03*
Y191930D02*
D03*
X1099820Y389730D02*
D03*
Y357030D02*
D03*
D50*
X1157920Y547980D02*
D03*
X1137920Y538480D02*
D03*
Y557480D02*
D03*
X1157920Y478180D02*
D03*
X1137920Y468680D02*
D03*
Y487680D02*
D03*
X1107120Y478180D02*
D03*
X1087120Y468680D02*
D03*
Y487680D02*
D03*
X1115220Y182880D02*
D03*
X1135220Y192380D02*
D03*
Y173380D02*
D03*
D51*
X1502120Y576580D02*
D03*
Y551180D02*
D03*
X1396020D02*
D03*
Y576580D02*
D03*
D52*
X502920Y159080D02*
D03*
Y259080D02*
D03*
D53*
X1061720Y132080D02*
D03*
Y106680D02*
D03*
Y157480D02*
D03*
Y182880D02*
D03*
X1214120Y233680D02*
D03*
Y208280D02*
D03*
Y182880D02*
D03*
D54*
X1061720Y81280D02*
D03*
X1214120Y157480D02*
D03*
D55*
X285750Y159420D02*
D03*
X133150D02*
D03*
X82750D02*
D03*
X32350D02*
D03*
Y84420D02*
D03*
X82750D02*
D03*
X133150D02*
D03*
X285750D02*
D03*
D56*
X1023620Y360680D02*
D03*
Y335280D02*
D03*
Y309880D02*
D03*
X1049020Y360680D02*
D03*
Y335280D02*
D03*
X980440Y360680D02*
D03*
Y335280D02*
D03*
X972820Y106680D02*
D03*
X947420D02*
D03*
X1163320Y233680D02*
D03*
Y208280D02*
D03*
D57*
X1049020Y309880D02*
D03*
X980440D02*
D03*
X1163320Y182880D02*
D03*
D58*
X922020Y106680D02*
D03*
D59*
X952820Y43180D02*
D03*
D60*
X972820D02*
D03*
D61*
X654920Y436880D02*
D03*
X629920D02*
D03*
X603920D02*
D03*
D62*
X883920Y360680D02*
D03*
D63*
Y335280D02*
D03*
X858520Y360680D02*
D03*
Y335280D02*
D03*
X833120Y360680D02*
D03*
Y335280D02*
D03*
X807720Y360680D02*
D03*
Y335280D02*
D03*
X782320Y360680D02*
D03*
Y335280D02*
D03*
D64*
X25400Y25400D02*
D03*
X1727200D02*
D03*
Y660400D02*
D03*
X25400D02*
D03*
D65*
X1271270Y229870D02*
D03*
X1243330Y247650D02*
D03*
X591820Y355600D02*
D03*
X1248410Y299720D02*
D03*
X946963Y335280D02*
D03*
X960120Y284480D02*
D03*
X1248410Y412750D02*
D03*
X995680Y271780D02*
D03*
X979401Y208280D02*
D03*
X993891Y222769D02*
D03*
X990328Y185928D02*
D03*
X972704Y227446D02*
D03*
X966470Y189230D02*
D03*
X953654Y208396D02*
D03*
X953759Y227352D02*
D03*
X826770Y227330D02*
D03*
X744220Y220980D02*
D03*
X1017154Y278246D02*
D03*
X1112520Y506730D02*
D03*
X1125220Y525780D02*
D03*
X1036320Y170180D02*
D03*
X902970Y240030D02*
D03*
X1468120Y405130D02*
D03*
X1537970Y455930D02*
D03*
X1499870Y442976D02*
D03*
X1036320Y551180D02*
D03*
X1036053Y565401D02*
D03*
X1188720Y195580D02*
D03*
X1417320Y411480D02*
D03*
X1506220Y367030D02*
D03*
X1163320Y506730D02*
D03*
X1112520Y462280D02*
D03*
X1258561Y429269D02*
D03*
X118110Y212090D02*
D03*
X1151890Y162560D02*
D03*
X1085850Y198120D02*
D03*
X1012952Y250190D02*
D03*
X1031240Y247650D02*
D03*
X1144270Y210820D02*
D03*
X1067673Y228203D02*
D03*
X1104806Y209296D02*
D03*
X1060450Y215900D02*
D03*
X1026160Y152400D02*
D03*
X996950Y115570D02*
D03*
X1009766Y93864D02*
D03*
X988060Y148590D02*
D03*
X971550Y143510D02*
D03*
X1098550Y180340D02*
D03*
X1099820Y160020D02*
D03*
X1086612Y129688D02*
D03*
X1118870Y143510D02*
D03*
X1183502Y138060D02*
D03*
X426720Y123190D02*
D03*
X934720Y284480D02*
D03*
X198120Y474980D02*
D03*
X1156970Y429768D02*
D03*
X1250950Y487680D02*
D03*
X1101090Y521462D02*
D03*
X786384Y234264D02*
D03*
X1276096Y400558D02*
D03*
X1317498Y384048D02*
D03*
X1332992Y414570D02*
D03*
X1370838Y434848D02*
D03*
X1635252Y453390D02*
D03*
X870966Y385318D02*
D03*
X691896Y37380D02*
D03*
Y130048D02*
D03*
X694944Y224630D02*
D03*
X806704Y272796D02*
D03*
X1116588Y322580D02*
D03*
X1145286Y402590D02*
D03*
X1129284Y304904D02*
D03*
X1316736Y436880D02*
D03*
Y477266D02*
D03*
X775970Y295910D02*
D03*
X756920Y309880D02*
D03*
X657860Y68326D02*
D03*
X895604Y263652D02*
D03*
M02*
