G04*
G04 #@! TF.GenerationSoftware,Altium Limited,Altium Designer,23.2.1 (34)*
G04*
G04 Layer_Physical_Order=2*
G04 Layer_Color=16711680*
%FSLAX44Y44*%
%MOMM*%
G71*
G04*
G04 #@! TF.SameCoordinates,4E9E20A5-CFB6-4988-ACB7-F8E89E2D747F*
G04*
G04*
G04 #@! TF.FilePolarity,Positive*
G04*
G01*
G75*
%ADD21R,1.5500X1.5500*%
%ADD22C,1.5500*%
G04:AMPARAMS|DCode=23|XSize=2.4mm|YSize=5mm|CornerRadius=1.2mm|HoleSize=0mm|Usage=FLASHONLY|Rotation=0.000|XOffset=0mm|YOffset=0mm|HoleType=Round|Shape=RoundedRectangle|*
%AMROUNDEDRECTD23*
21,1,2.4000,2.6000,0,0,0.0*
21,1,0.0000,5.0000,0,0,0.0*
1,1,2.4000,0.0000,-1.3000*
1,1,2.4000,0.0000,-1.3000*
1,1,2.4000,0.0000,1.3000*
1,1,2.4000,0.0000,1.3000*
%
%ADD23ROUNDEDRECTD23*%
%ADD29C,0.5080*%
%ADD30R,1.6500X1.6500*%
%ADD31C,1.6500*%
%ADD32C,1.5240*%
%ADD33C,4.0000*%
%ADD34C,1.2700*%
D21*
X470300Y235100D02*
D03*
D22*
X520300D02*
D03*
X470300Y90100D02*
D03*
X495300D02*
D03*
X520300D02*
D03*
D23*
X438300Y165100D02*
D03*
X552300D02*
D03*
D29*
X578824Y188256D02*
Y205782D01*
Y188256D02*
X596900Y170180D01*
X549506Y235100D02*
X578824Y205782D01*
X624110Y198850D02*
X652780Y170180D01*
X624110Y198850D02*
Y207888D01*
X596898Y235100D02*
X624110Y207888D01*
X19050Y350866D02*
Y484886D01*
X30826Y339090D02*
X54768D01*
X58324Y342646D02*
X73081D01*
X79497Y349062D01*
X19050Y350866D02*
X30826Y339090D01*
X35560Y350520D02*
X70178D01*
X79497Y349062D02*
X90744D01*
X70178Y350520D02*
X81608Y361950D01*
X90744Y349062D02*
X92202Y350520D01*
X54768Y339090D02*
X58324Y342646D01*
X65278Y331216D02*
X342138D01*
X256319Y360680D02*
X419100D01*
X116478Y361950D02*
X120542Y357886D01*
X130718D02*
X139354Y349250D01*
X255665D01*
X259475Y353060D01*
X419100Y360680D02*
X439420Y340360D01*
X145126Y356870D02*
X252509D01*
X136489Y365506D02*
X145126Y356870D01*
X149860Y368300D02*
X160020Y378460D01*
X375920Y353060D02*
X388620Y340360D01*
X252509Y356870D02*
X256319Y360680D01*
X259475Y353060D02*
X375920D01*
X81608Y361950D02*
X116478D01*
X160020Y378460D02*
X452120D01*
X120542Y357886D02*
X130718D01*
X123698Y365506D02*
X136489D01*
X106172Y383032D02*
X123698Y365506D01*
X131602Y342900D02*
X134142Y340360D01*
X129540Y342900D02*
X131602D01*
X134142Y340360D02*
X363220D01*
X360680Y464820D02*
X388620Y492760D01*
X19050Y484886D02*
X40894Y506730D01*
X30480Y464820D02*
X360680D01*
X40894Y506730D02*
X400050D01*
X175260Y403860D02*
X350520D01*
X549506Y235100D02*
X596898D01*
X520300D02*
X549506D01*
X452120Y378460D02*
X490220Y340360D01*
X350520Y403860D02*
X439420Y492760D01*
X355600Y205740D02*
X370840Y220980D01*
X380492D01*
X363220Y391160D02*
X464820Y492760D01*
X161036Y391160D02*
X363220D01*
X316738Y193802D02*
X330200Y180340D01*
X316738Y193802D02*
Y231902D01*
X317246Y232410D01*
X408178D01*
X419354Y221234D01*
X506434D01*
X520300Y235100D01*
X90932Y319786D02*
X444246D01*
X464820Y340360D01*
X342138Y331216D02*
X345694Y327660D01*
X401320D01*
X414020Y340360D01*
X400050Y506730D02*
X414020Y492760D01*
X355600Y104140D02*
X481260D01*
X495300Y90100D01*
X240284Y183134D02*
X299720Y242570D01*
X448714D01*
X456184Y235100D01*
X470300D01*
X478206Y48006D02*
X520300Y90100D01*
X332232Y48006D02*
X478206D01*
X316738Y63500D02*
X332232Y48006D01*
X316738Y63500D02*
Y116078D01*
X330200Y129540D01*
D30*
Y205740D02*
D03*
D31*
X355600D02*
D03*
X330200Y180340D02*
D03*
X355600D02*
D03*
X330200Y154940D02*
D03*
X355600D02*
D03*
X330200Y129540D02*
D03*
X355600D02*
D03*
X330200Y104140D02*
D03*
X355600D02*
D03*
D32*
X363220Y492760D02*
D03*
X388620D02*
D03*
X414020D02*
D03*
X439420D02*
D03*
X464820D02*
D03*
X490220D02*
D03*
Y340360D02*
D03*
X464820D02*
D03*
X439420D02*
D03*
X414020D02*
D03*
X388620D02*
D03*
X363220D02*
D03*
D33*
X25400Y25400D02*
D03*
X711200D02*
D03*
Y533400D02*
D03*
X25400D02*
D03*
D34*
X596900Y170180D02*
D03*
X652780D02*
D03*
X35560Y350520D02*
D03*
X65278Y331216D02*
D03*
X149860Y368300D02*
D03*
X129540Y342900D02*
D03*
X30480Y464820D02*
D03*
X175260Y403860D02*
D03*
X380492Y220980D02*
D03*
X161036Y391160D02*
D03*
X90932Y319786D02*
D03*
X106172Y383032D02*
D03*
X92202Y350520D02*
D03*
X240284Y183134D02*
D03*
M02*
