G04*
G04 #@! TF.GenerationSoftware,Altium Limited,Altium Designer,23.2.1 (34)*
G04*
G04 Layer_Color=65535*
%FSLAX44Y44*%
%MOMM*%
G71*
G04*
G04 #@! TF.SameCoordinates,4E9E20A5-CFB6-4988-ACB7-F8E89E2D747F*
G04*
G04*
G04 #@! TF.FilePolarity,Positive*
G04*
G01*
G75*
%ADD10C,0.2500*%
%ADD11C,0.6000*%
%ADD12C,0.2540*%
%ADD13C,0.2000*%
D10*
X57710Y488560D02*
G03*
X57710Y488560I-1250J0D01*
G01*
X471550Y248350D02*
G03*
X471550Y248350I-1250J0D01*
G01*
D11*
X81710Y477410D02*
G03*
X81710Y477410I-3000J0D01*
G01*
D12*
X187369Y325120D02*
G03*
X187369Y325120I-5759J0D01*
G01*
X198882Y264922D02*
X214161D01*
X169590Y235630D02*
X198882Y264922D01*
X225208D02*
X254590Y235540D01*
Y162560D02*
Y235540D01*
X169590Y162560D02*
X254590D01*
X169590D02*
Y235630D01*
X214161Y264922D02*
X225208D01*
X166720Y311560D02*
Y521560D01*
X686720Y311560D02*
Y521560D01*
X166720D02*
X686720D01*
X166720Y311560D02*
X686720D01*
X63497Y119375D02*
X58418D01*
X60957D01*
Y106679D01*
X58418Y104140D01*
X55879D01*
X53340Y106679D01*
X76193Y104140D02*
X71114D01*
X68575Y106679D01*
Y111757D01*
X71114Y114297D01*
X76193D01*
X78732Y111757D01*
Y109218D01*
X68575D01*
X83810Y104140D02*
X88889D01*
X86349D01*
Y119375D01*
X83810D01*
X96506Y104140D02*
X101584D01*
X99045D01*
Y119375D01*
X96506D01*
X116819Y104140D02*
X111741D01*
X109202Y106679D01*
Y111757D01*
X111741Y114297D01*
X116819D01*
X119359Y111757D01*
Y109218D01*
X109202D01*
X149829Y116836D02*
X147290Y119375D01*
X142211D01*
X139672Y116836D01*
Y106679D01*
X142211Y104140D01*
X147290D01*
X149829Y106679D01*
X154907Y104140D02*
X159986D01*
X157446D01*
Y119375D01*
X154907D01*
X170142Y114297D02*
X175221D01*
X177760Y111757D01*
Y104140D01*
X170142D01*
X167603Y106679D01*
X170142Y109218D01*
X177760D01*
X190456Y104140D02*
X185377D01*
X182838Y106679D01*
Y111757D01*
X185377Y114297D01*
X190456D01*
X192995Y111757D01*
Y109218D01*
X182838D01*
X198073Y104140D02*
X205691D01*
X208230Y106679D01*
X205691Y109218D01*
X200612D01*
X198073Y111757D01*
X200612Y114297D01*
X208230D01*
X53340Y99053D02*
Y83818D01*
X60957D01*
X63497Y86357D01*
Y96514D01*
X60957Y99053D01*
X53340D01*
X68575Y83818D02*
X73653D01*
X71114D01*
Y93975D01*
X68575D01*
X81271Y83818D02*
X88889D01*
X91428Y86357D01*
X88889Y88897D01*
X83810D01*
X81271Y91436D01*
X83810Y93975D01*
X91428D01*
X96506Y78740D02*
Y93975D01*
X104124D01*
X106663Y91436D01*
Y86357D01*
X104124Y83818D01*
X96506D01*
X111741D02*
X116819D01*
X114280D01*
Y99053D01*
X111741D01*
X126976Y93975D02*
X132055D01*
X134594Y91436D01*
Y83818D01*
X126976D01*
X124437Y86357D01*
X126976Y88897D01*
X134594D01*
X139672Y93975D02*
Y86357D01*
X142211Y83818D01*
X149829D01*
Y81279D01*
X147290Y78740D01*
X144750D01*
X149829Y83818D02*
Y93975D01*
X63497Y53340D02*
X53340D01*
X63497Y63497D01*
Y66036D01*
X60957Y68575D01*
X55879D01*
X53340Y66036D01*
X78732Y53340D02*
X68575D01*
X78732Y63497D01*
Y66036D01*
X76193Y68575D01*
X71114D01*
X68575Y66036D01*
X83810Y53340D02*
X93967Y63497D01*
X109202Y53340D02*
X99045D01*
X109202Y63497D01*
Y66036D01*
X106663Y68575D01*
X101584D01*
X99045Y66036D01*
X114280D02*
X116819Y68575D01*
X121898D01*
X124437Y66036D01*
Y63497D01*
X121898Y60957D01*
X119359D01*
X121898D01*
X124437Y58418D01*
Y55879D01*
X121898Y53340D01*
X116819D01*
X114280Y55879D01*
X175261Y281938D02*
X172722Y284478D01*
X167643D01*
X165104Y281938D01*
Y271782D01*
X167643Y269242D01*
X172722D01*
X175261Y271782D01*
X190496Y284478D02*
X180339D01*
Y276860D01*
X185417Y279399D01*
X187957D01*
X190496Y276860D01*
Y271782D01*
X187957Y269242D01*
X182878D01*
X180339Y271782D01*
X662178Y167640D02*
Y182875D01*
X669796D01*
X672335Y180336D01*
Y175257D01*
X669796Y172718D01*
X662178D01*
X667256D02*
X672335Y167640D01*
X677413Y180336D02*
X679952Y182875D01*
X685031D01*
X687570Y180336D01*
Y177797D01*
X685031Y175257D01*
X682491D01*
X685031D01*
X687570Y172718D01*
Y170179D01*
X685031Y167640D01*
X679952D01*
X677413Y170179D01*
X662178Y220980D02*
Y236215D01*
X669796D01*
X672335Y233676D01*
Y228598D01*
X669796Y226058D01*
X662178D01*
X667256D02*
X672335Y220980D01*
X687570D02*
X677413D01*
X687570Y231137D01*
Y233676D01*
X685031Y236215D01*
X679952D01*
X677413Y233676D01*
X662178Y276860D02*
Y292095D01*
X669796D01*
X672335Y289556D01*
Y284478D01*
X669796Y281938D01*
X662178D01*
X667256D02*
X672335Y276860D01*
X677413D02*
X682491D01*
X679952D01*
Y292095D01*
X677413Y289556D01*
X167894Y545587D02*
Y530352D01*
X178051D01*
X183129Y545587D02*
Y530352D01*
X190747D01*
X193286Y532891D01*
Y543048D01*
X190747Y545587D01*
X183129D01*
X198364Y530352D02*
X203442D01*
X200903D01*
Y545587D01*
X198364Y543048D01*
X297942Y282189D02*
Y266954D01*
Y272032D01*
X308099Y282189D01*
X300481Y274571D01*
X308099Y266954D01*
X313177D02*
X318255D01*
X315716D01*
Y282189D01*
X313177Y279650D01*
X48006Y513837D02*
X53084D01*
X50545D01*
Y498602D01*
X48006D01*
X53084D01*
X70859Y511298D02*
X68319Y513837D01*
X63241D01*
X60702Y511298D01*
Y501141D01*
X63241Y498602D01*
X68319D01*
X70859Y501141D01*
X75937Y498602D02*
X81015D01*
X78476D01*
Y513837D01*
X75937Y511298D01*
X436877Y273807D02*
X426720D01*
Y258572D01*
X436877D01*
X426720Y266189D02*
X431798D01*
X441955Y258572D02*
Y273807D01*
X452112Y258572D01*
Y273807D01*
X467347Y271268D02*
X464808Y273807D01*
X459729D01*
X457190Y271268D01*
Y261111D01*
X459729Y258572D01*
X464808D01*
X467347Y261111D01*
X472425Y258572D02*
X477504D01*
X474964D01*
Y273807D01*
X472425Y271268D01*
X623059Y129028D02*
X620519Y131567D01*
X615441D01*
X612902Y129028D01*
Y118871D01*
X615441Y116332D01*
X620519D01*
X623059Y118871D01*
X635755Y116332D02*
Y131567D01*
X628137Y123949D01*
X638294D01*
X623059Y182368D02*
X620519Y184907D01*
X615441D01*
X612902Y182368D01*
Y172211D01*
X615441Y169672D01*
X620519D01*
X623059Y172211D01*
X628137Y182368D02*
X630676Y184907D01*
X635755D01*
X638294Y182368D01*
Y179829D01*
X635755Y177290D01*
X633215D01*
X635755D01*
X638294Y174750D01*
Y172211D01*
X635755Y169672D01*
X630676D01*
X628137Y172211D01*
X623059Y235708D02*
X620519Y238247D01*
X615441D01*
X612902Y235708D01*
Y225551D01*
X615441Y223012D01*
X620519D01*
X623059Y225551D01*
X638294Y223012D02*
X628137D01*
X638294Y233169D01*
Y235708D01*
X635755Y238247D01*
X630676D01*
X628137Y235708D01*
X623567Y290318D02*
X621027Y292857D01*
X615949D01*
X613410Y290318D01*
Y280161D01*
X615949Y277622D01*
X621027D01*
X623567Y280161D01*
X628645Y277622D02*
X633723D01*
X631184D01*
Y292857D01*
X628645Y290318D01*
D13*
X676180Y249428D02*
X678180D01*
X675894Y268732D02*
X677894D01*
X675894Y212852D02*
X677894D01*
X676180Y193548D02*
X678180D01*
X676180Y140208D02*
X678180D01*
X675894Y159512D02*
X677894D01*
X612309Y85270D02*
X637371D01*
X612309Y107770D02*
X637371D01*
X612309Y161110D02*
X637371D01*
X612309Y138610D02*
X637371D01*
X612309Y214450D02*
X637371D01*
X612309Y191950D02*
X637371D01*
X612921Y269060D02*
X637983D01*
X612921Y246560D02*
X637983D01*
X68710Y358410D02*
Y487410D01*
X116710Y358410D02*
Y487410D01*
X68710D02*
X116710D01*
X68710Y358410D02*
X116710D01*
X298150Y50340D02*
Y205740D01*
Y50340D02*
X389650D01*
Y256540D01*
X330200D02*
X389650D01*
X430300Y234600D02*
X458800D01*
X481800D02*
X508800D01*
X531800D02*
X560300D01*
Y95600D02*
Y136350D01*
Y193850D02*
Y234600D01*
X430300Y95600D02*
X458800D01*
X481800D02*
X483800D01*
X506800D02*
X508800D01*
X531800D02*
X560300D01*
X430300D02*
Y136350D01*
Y193850D02*
Y234600D01*
M02*
