G04*
G04 #@! TF.GenerationSoftware,Altium Limited,Altium Designer,23.2.1 (34)*
G04*
G04 Layer_Physical_Order=1*
G04 Layer_Color=255*
%FSLAX44Y44*%
%MOMM*%
G71*
G04*
G04 #@! TF.SameCoordinates,4E9E20A5-CFB6-4988-ACB7-F8E89E2D747F*
G04*
G04*
G04 #@! TF.FilePolarity,Positive*
G04*
G01*
G75*
%ADD12C,0.2540*%
%ADD16R,1.1046X1.3562*%
%ADD21R,1.5500X1.5500*%
%ADD22C,1.5500*%
G04:AMPARAMS|DCode=23|XSize=2.4mm|YSize=5mm|CornerRadius=1.2mm|HoleSize=0mm|Usage=FLASHONLY|Rotation=0.000|XOffset=0mm|YOffset=0mm|HoleType=Round|Shape=RoundedRectangle|*
%AMROUNDEDRECTD23*
21,1,2.4000,2.6000,0,0,0.0*
21,1,0.0000,5.0000,0,0,0.0*
1,1,2.4000,0.0000,-1.3000*
1,1,2.4000,0.0000,-1.3000*
1,1,2.4000,0.0000,1.3000*
1,1,2.4000,0.0000,1.3000*
%
%ADD23ROUNDEDRECTD23*%
%ADD26R,1.1000X2.9000*%
%ADD27R,1.0500X1.4500*%
G04:AMPARAMS|DCode=28|XSize=0.6mm|YSize=1.65mm|CornerRadius=0.051mm|HoleSize=0mm|Usage=FLASHONLY|Rotation=90.000|XOffset=0mm|YOffset=0mm|HoleType=Round|Shape=RoundedRectangle|*
%AMROUNDEDRECTD28*
21,1,0.6000,1.5480,0,0,90.0*
21,1,0.4980,1.6500,0,0,90.0*
1,1,0.1020,0.7740,0.2490*
1,1,0.1020,0.7740,-0.2490*
1,1,0.1020,-0.7740,-0.2490*
1,1,0.1020,-0.7740,0.2490*
%
%ADD28ROUNDEDRECTD28*%
%ADD29C,0.5080*%
%ADD30R,1.6500X1.6500*%
%ADD31C,1.6500*%
%ADD32C,1.5240*%
%ADD33C,4.0000*%
%ADD34C,1.2700*%
D12*
X169590Y170770D02*
X169680Y170860D01*
D16*
X617832Y96520D02*
D03*
X631848D02*
D03*
Y149860D02*
D03*
X617832D02*
D03*
X631848Y203200D02*
D03*
X617832D02*
D03*
X632460Y257810D02*
D03*
X618444D02*
D03*
D21*
X470300Y235100D02*
D03*
D22*
X520300D02*
D03*
X470300Y90100D02*
D03*
X495300D02*
D03*
X520300D02*
D03*
D23*
X438300Y165100D02*
D03*
X552300D02*
D03*
D26*
X212090Y243360D02*
D03*
Y183360D02*
D03*
D27*
X686160Y259080D02*
D03*
X667660D02*
D03*
Y203200D02*
D03*
X686160D02*
D03*
Y149860D02*
D03*
X667660D02*
D03*
D28*
X56460Y480060D02*
D03*
Y467360D02*
D03*
Y454660D02*
D03*
Y441960D02*
D03*
Y429260D02*
D03*
Y416560D02*
D03*
Y403860D02*
D03*
Y391160D02*
D03*
Y378460D02*
D03*
Y365760D02*
D03*
X128960Y480060D02*
D03*
Y467360D02*
D03*
Y454660D02*
D03*
Y441960D02*
D03*
Y429260D02*
D03*
Y416560D02*
D03*
Y403860D02*
D03*
Y391160D02*
D03*
Y378460D02*
D03*
Y365760D02*
D03*
D29*
X611913Y170180D02*
X617832Y164261D01*
X596900Y170180D02*
X611913D01*
X617832Y149860D02*
Y164261D01*
X667660Y149860D02*
Y151860D01*
X654238Y165282D02*
X667660Y151860D01*
X654238Y165282D02*
Y168722D01*
X652780Y170180D02*
X654238Y168722D01*
X35560Y350520D02*
Y388163D01*
X33020Y390703D02*
Y426284D01*
Y390703D02*
X35560Y388163D01*
X70866Y336804D02*
Y373380D01*
X65278Y331216D02*
X70866Y336804D01*
X149503Y368300D02*
X149860D01*
X139803Y378000D02*
X149503Y368300D01*
X129420Y378000D02*
X139803D01*
X128960Y378460D02*
X129420Y378000D01*
X93980Y377698D02*
X128778Y342900D01*
X129540D01*
X93980Y377698D02*
Y401320D01*
X30480Y464820D02*
X32542D01*
X35082Y467360D01*
X19050Y469554D02*
X29555Y480060D01*
X56460D01*
X19050Y346964D02*
X160274Y205740D01*
X19050Y346964D02*
Y469554D01*
X35082Y467360D02*
X56460D01*
X35996Y429260D02*
X56460D01*
X33020Y426284D02*
X35996Y429260D01*
X212090Y243360D02*
Y294755D01*
X361276Y490816D02*
X363220Y492760D01*
X361276Y485736D02*
Y490816D01*
X292100Y416560D02*
X361276Y485736D01*
X128960Y416560D02*
X292100D01*
X255812Y429260D02*
X332012Y505460D01*
X325700Y520700D02*
X404040D01*
X328856Y513080D02*
X386260D01*
X128960Y429260D02*
X255812D01*
X259660Y454660D02*
X325700Y520700D01*
X128960Y441960D02*
X257736D01*
X128960Y454660D02*
X259660D01*
X426720Y444463D02*
Y498021D01*
X401320Y429840D02*
Y498021D01*
X350520Y314706D02*
Y368263D01*
X342900Y299974D02*
Y371419D01*
X375920Y458585D02*
Y498021D01*
X404040Y520700D02*
X426720Y498021D01*
X386260Y513080D02*
X401320Y498021D01*
X212090Y215900D02*
Y243360D01*
X350520Y368263D02*
X426720Y444463D01*
X342900Y371419D02*
X401320Y429840D01*
X350520Y314706D02*
X380492Y284734D01*
X342900Y299974D02*
X369062Y273812D01*
X257736Y441960D02*
X328856Y513080D01*
X212090Y294755D02*
X375920Y458585D01*
X368480Y505460D02*
X375920Y498021D01*
X332012Y505460D02*
X368480D01*
X128960Y403860D02*
X175260D01*
X380492Y220980D02*
Y284734D01*
X369062Y193802D02*
Y273812D01*
X106172Y383032D02*
Y429260D01*
X93472Y441960D02*
X106172Y429260D01*
X56460Y441960D02*
X93472D01*
X587398Y27940D02*
X631848Y72390D01*
X289814Y30916D02*
Y185928D01*
Y30916D02*
X292790Y27940D01*
X587398D01*
X686160Y203200D02*
Y249534D01*
Y149860D02*
Y194670D01*
X631848Y192382D02*
Y203200D01*
Y149860D02*
Y192382D01*
X212090Y183134D02*
X240284D01*
X270002Y205740D02*
X330200D01*
X222250D02*
X270002D01*
X212090Y215900D02*
X222250Y205740D01*
X270002D02*
X289814Y185928D01*
X631848Y72390D02*
Y96520D01*
X78740Y416560D02*
X93980Y401320D01*
X56460Y416560D02*
X78740D01*
X128960Y391160D02*
X161036D01*
X470300Y115100D02*
Y235100D01*
Y115100D02*
X495300Y90100D01*
X410972Y149428D02*
X470300Y90100D01*
X410972Y149428D02*
Y246380D01*
X422402Y257810D01*
X618444D01*
X355600Y180340D02*
X369062Y193802D01*
X56460Y391160D02*
X68042D01*
X78740Y380462D01*
Y331978D02*
Y380462D01*
Y331978D02*
X90932Y319786D01*
X56460Y378460D02*
X65786D01*
X70866Y373380D01*
X86360Y356362D02*
X92202Y350520D01*
X86360Y356362D02*
Y386701D01*
X69201Y403860D02*
X86360Y386701D01*
X56460Y403860D02*
X69201D01*
X160274Y205740D02*
X207010D01*
X212090Y200660D01*
Y183360D02*
Y200660D01*
X322580Y90100D02*
X470300D01*
X316738Y95942D02*
X322580Y90100D01*
X316738Y95942D02*
Y141478D01*
X330200Y154940D01*
X212090Y183134D02*
Y183360D01*
X631848Y96520D02*
Y149860D01*
X56460Y454660D02*
X80010D01*
X157480Y532130D01*
X450850D01*
X490220Y492760D01*
X617832Y203200D02*
Y210820D01*
X622150Y215138D01*
X663342D01*
X667660Y210820D01*
Y203200D02*
Y210820D01*
Y259080D02*
Y266700D01*
X664612Y269748D02*
X667660Y266700D01*
X621492Y269748D02*
X664612D01*
X618444Y266700D02*
X621492Y269748D01*
X618444Y257810D02*
Y266700D01*
X520300Y90100D02*
Y179686D01*
X543814Y203200D01*
X617832D01*
X578612Y96520D02*
X617832D01*
X559308Y77216D02*
X578612Y96520D01*
X508184Y77216D02*
X559308D01*
X495300Y90100D02*
X508184Y77216D01*
X686160Y249534D02*
Y259080D01*
X683260Y246634D02*
X686160Y249534D01*
X635000Y246634D02*
X683260D01*
X632460Y249174D02*
X635000Y246634D01*
X632460Y249174D02*
Y257810D01*
X686160Y194670D02*
Y203200D01*
X678180Y186690D02*
X686160Y194670D01*
X637540Y186690D02*
X678180D01*
X631848Y192382D02*
X637540Y186690D01*
D30*
X330200Y205740D02*
D03*
D31*
X355600D02*
D03*
X330200Y180340D02*
D03*
X355600D02*
D03*
X330200Y154940D02*
D03*
X355600D02*
D03*
X330200Y129540D02*
D03*
X355600D02*
D03*
X330200Y104140D02*
D03*
X355600D02*
D03*
D32*
X363220Y492760D02*
D03*
X388620D02*
D03*
X414020D02*
D03*
X439420D02*
D03*
X464820D02*
D03*
X490220D02*
D03*
Y340360D02*
D03*
X464820D02*
D03*
X439420D02*
D03*
X414020D02*
D03*
X388620D02*
D03*
X363220D02*
D03*
D33*
X25400Y25400D02*
D03*
X711200D02*
D03*
Y533400D02*
D03*
X25400D02*
D03*
D34*
X596900Y170180D02*
D03*
X652780D02*
D03*
X35560Y350520D02*
D03*
X65278Y331216D02*
D03*
X149860Y368300D02*
D03*
X129540Y342900D02*
D03*
X30480Y464820D02*
D03*
X175260Y403860D02*
D03*
X380492Y220980D02*
D03*
X161036Y391160D02*
D03*
X90932Y319786D02*
D03*
X106172Y383032D02*
D03*
X92202Y350520D02*
D03*
X240284Y183134D02*
D03*
M02*
