G04*
G04 #@! TF.GenerationSoftware,Altium Limited,Altium Designer,23.2.1 (34)*
G04*
G04 Layer_Color=16711935*
%FSLAX44Y44*%
%MOMM*%
G71*
G04*
G04 #@! TF.SameCoordinates,4E9E20A5-CFB6-4988-ACB7-F8E89E2D747F*
G04*
G04*
G04 #@! TF.FilePolarity,Negative*
G04*
G01*
G75*
%ADD18R,1.8532X1.8532*%
%ADD19C,1.8532*%
%ADD20C,1.7272*%
%ADD21R,1.5500X1.5500*%
%ADD22C,1.5500*%
G04:AMPARAMS|DCode=23|XSize=2.4mm|YSize=5mm|CornerRadius=1.2mm|HoleSize=0mm|Usage=FLASHONLY|Rotation=0.000|XOffset=0mm|YOffset=0mm|HoleType=Round|Shape=RoundedRectangle|*
%AMROUNDEDRECTD23*
21,1,2.4000,2.6000,0,0,0.0*
21,1,0.0000,5.0000,0,0,0.0*
1,1,2.4000,0.0000,-1.3000*
1,1,2.4000,0.0000,-1.3000*
1,1,2.4000,0.0000,1.3000*
1,1,2.4000,0.0000,1.3000*
%
%ADD23ROUNDEDRECTD23*%
%ADD24C,4.2032*%
%ADD25C,1.4732*%
D18*
X330200Y205740D02*
D03*
D19*
X355600D02*
D03*
X330200Y180340D02*
D03*
X355600D02*
D03*
X330200Y154940D02*
D03*
X355600D02*
D03*
X330200Y129540D02*
D03*
X355600D02*
D03*
X330200Y104140D02*
D03*
X355600D02*
D03*
D20*
X363220Y492760D02*
D03*
X388620D02*
D03*
X414020D02*
D03*
X439420D02*
D03*
X464820D02*
D03*
X490220D02*
D03*
Y340360D02*
D03*
X464820D02*
D03*
X439420D02*
D03*
X414020D02*
D03*
X388620D02*
D03*
X363220D02*
D03*
D21*
X470300Y235100D02*
D03*
D22*
X520300D02*
D03*
X470300Y90100D02*
D03*
X495300D02*
D03*
X520300D02*
D03*
D23*
X438300Y165100D02*
D03*
X552300D02*
D03*
D24*
X25400Y25400D02*
D03*
X711200D02*
D03*
Y533400D02*
D03*
X25400D02*
D03*
D25*
X596900Y170180D02*
D03*
X652780D02*
D03*
X35560Y350520D02*
D03*
X65278Y331216D02*
D03*
X149860Y368300D02*
D03*
X129540Y342900D02*
D03*
X30480Y464820D02*
D03*
X175260Y403860D02*
D03*
X380492Y220980D02*
D03*
X161036Y391160D02*
D03*
X90932Y319786D02*
D03*
X106172Y383032D02*
D03*
X92202Y350520D02*
D03*
X240284Y183134D02*
D03*
M02*
