M48
;Layer_Color=9474304
;FILE_FORMAT=4:4
METRIC,LZ
;TYPE=PLATED
T1F00S00C0.7112
T2F00S00C1.0000
T3F00S00C1.1000
T5F00S00C3.0000
%
T01
X0065278Y0017018
X005969
X00380492Y0022098
X00240284Y00183134
X0012954Y003429
X00092202Y0035052
X00090932Y00319786
X00065278Y00331216
X0003556Y0035052
X00106172Y00383032
X0014986Y003683
X00161036Y0039116
X0017526Y0040386
X0003048Y0046482
T02
X004703Y000901
X004953
X005203
Y002351
X004703
X0046482Y0034036
X0049022
X0043942
X0041402
X0038862
X0036322
Y0049276
X0038862
X0041402
X0043942
X0046482
X0049022
T03
X003302Y0010414
Y0012954
Y0015494
Y0018034
Y0020574
X003556
Y0018034
Y0015494
Y0012954
Y0010414
T05
X007112Y000254
X000254
Y005334
X007112
M30
